<?xml version="1.0" encoding="UTF-8"?>
<svg version="1.1" xmlns="http://www.w3.org/2000/svg" width="512" height="512">
<path d="M0 0 C7.52735904 4.48853632 11.93185993 10.28063521 15.421875 18.2578125 C16.28588231 22.02802621 16.15296605 25.39009771 16.109375 29.2578125 C16.7152948 29.25412533 17.3212146 29.25043816 17.94549561 29.24663925 C32.71090056 29.15817732 47.47628981 29.09204905 62.24189758 29.05056381 C69.38255347 29.02996689 76.52303212 29.00190165 83.66357422 28.95605469 C89.88963252 28.91609847 96.11556241 28.89035882 102.34174538 28.88145852 C105.63641957 28.87625846 108.93064234 28.86197725 112.22521973 28.83489227 C115.90948162 28.80581116 119.59298535 28.80185866 123.27734375 28.80371094 C124.36131943 28.78932983 125.4452951 28.77494873 126.56211853 28.76013184 C134.17448058 28.80148176 139.47106314 30.06953573 145.3515625 35.22265625 C145.89039063 35.87363281 146.42921875 36.52460937 146.984375 37.1953125 C147.53867187 37.84371094 148.09296875 38.49210937 148.6640625 39.16015625 C151.92137213 43.88765699 152.40719822 48.23351872 152.39990234 53.85864258 C152.40661957 54.60730087 152.41333679 55.35595917 152.42025757 56.12730408 C152.43920268 58.59405213 152.44316012 61.06052754 152.4453125 63.52734375 C152.4517434 65.24981293 152.45847198 66.97228102 152.46548462 68.69474792 C152.47744905 72.30344168 152.48116636 75.91203977 152.47998047 79.52075195 C152.47977745 84.13075955 152.50706522 88.74014949 152.54152489 93.35001087 C152.56383264 96.90779909 152.56781681 100.46543965 152.56676102 104.02329063 C152.56911169 105.72205417 152.57790503 107.42082211 152.59342575 109.11951637 C152.73037239 125.65765688 152.73037239 125.65765688 148.109375 132.2578125 C147.57687637 132.75636749 147.04437775 133.25492249 146.4957428 133.76858521 C144.26694351 136.16274694 144.77315856 138.4898682 144.81640625 141.67578125 C144.82607422 142.92939453 144.83574219 144.18300781 144.84570312 145.47460938 C144.8834082 147.44010742 144.8834082 147.44010742 144.921875 149.4453125 C144.93692533 150.78058413 144.95061313 152.11587187 144.96289062 153.45117188 C144.99829806 156.72045826 145.0476861 159.98893343 145.109375 163.2578125 C145.78516602 162.57154785 146.46095703 161.8852832 147.15722656 161.17822266 C149.67179381 158.62738707 152.1930301 156.08323196 154.71630859 153.54101562 C155.80634951 152.44093272 156.89458664 151.33905939 157.98095703 150.23535156 C159.5450634 148.64691783 161.11559708 147.0650891 162.6875 145.484375 C163.16995178 144.99160065 163.65240356 144.49882629 164.1494751 143.99111938 C168.85417945 139.28487062 168.85417945 139.28487062 172.109375 138.2578125 C174.02709961 138.7097168 174.02709961 138.7097168 176.07421875 139.39453125 C179.84480118 139.91532993 180.93601324 139.38680516 184.05126953 137.06884766 C187.43229679 133.90248667 190.5533397 130.49212246 193.671875 127.0703125 C195.82528048 124.75030295 197.99333664 122.44505204 200.17578125 120.15234375 C200.6926651 119.60836945 201.20954895 119.06439514 201.74209595 118.50393677 C208.52571341 111.54191416 215.4235929 109.06619372 225.046875 108.8203125 C225.74361328 108.77455078 226.44035156 108.72878906 227.15820312 108.68164062 C237.77349552 108.46148578 245.83481534 114.5358763 253.1953125 121.546875 C255.03166449 123.35175383 256.84617925 125.17476286 258.64794922 127.01416016 C260.48189131 128.88028522 262.34575868 130.71211831 264.21484375 132.54296875 C272.33683667 140.63210439 280.78987208 149.58228727 280.9296875 161.76953125 C280.89488281 162.75373047 280.89488281 162.75373047 280.859375 163.7578125 C280.88257813 164.41394531 280.90578125 165.07007813 280.9296875 165.74609375 C280.8259442 174.78905146 276.06996369 182.6116893 269.82455444 188.84286499 C266.58638896 191.94659231 263.29553139 194.98728341 259.95825195 197.98413086 C253.28851424 203.43911361 253.28851424 203.43911361 249.75341797 210.78759766 C250.05763338 213.10159013 250.05763338 213.10159013 250.87475586 215.1184082 C251.17884691 217.89130086 250.24788862 219.25352542 248.63139343 221.45463562 C245.13749722 225.59395006 241.26041848 229.36756121 237.41796875 233.1796875 C236.46643653 234.13002569 235.5152758 235.08073596 234.56446838 236.03179932 C232.57966963 238.01504093 230.59157843 239.99489889 228.60083008 241.97216797 C226.05137075 244.50458054 223.50860177 247.04358407 220.96803188 249.58491135 C219.00807368 251.54459758 217.04552001 253.5016667 215.08207893 255.45786285 C213.68795286 256.84727102 212.2953127 258.23816963 210.9026947 259.62908936 C210.05493973 260.47046448 209.20718475 261.3118396 208.33374023 262.17871094 C207.58857651 262.92006287 206.84341278 263.66141479 206.07566833 264.42523193 C203.07141414 267.22518948 201.18535138 268.52176624 197.109375 268.3828125 C196.42875 268.36476563 195.748125 268.34671875 195.046875 268.328125 C194.4075 268.30492187 193.768125 268.28171875 193.109375 268.2578125 C182.81118188 268.2578125 168.63762283 285.29771384 161.27772522 292.53361511 C145.34020727 308.72972434 140.64062258 323.56869025 140.63671875 346.02734375 C140.63641309 347.09154801 140.63641309 347.09154801 140.63610125 348.17725134 C140.67068626 356.93361952 141.0879145 365.65509819 141.64895976 374.39173305 C142.17103246 382.6504529 142.39689368 390.91423808 142.61914062 399.18554688 C142.69857228 402.10672327 142.77970695 405.02784132 142.86341858 407.94889832 C142.88360741 408.6561062 142.90379624 409.36331408 142.92459685 410.0919525 C143.07036113 414.91001857 143.29763529 419.71974058 143.56077576 424.53266907 C143.62435776 425.80293442 143.68793976 427.07319977 143.75344849 428.38195801 C143.87443569 430.73860233 144.01222376 433.09447377 144.17063904 435.44889832 C144.55501052 443.33055816 143.49030921 448.399649 138.14453125 454.5 C137.49355469 455.03882813 136.84257812 455.57765625 136.171875 456.1328125 C135.52347656 456.68710937 134.87507813 457.24140625 134.20703125 457.8125 C129.36990623 461.14534219 124.8597178 461.57613938 119.10546875 461.59375 C118.34516861 461.6004068 117.58486847 461.6070636 116.80152893 461.61392212 C115.20047413 461.62401187 113.59937758 461.62874028 111.99829102 461.62841797 C109.55089449 461.63280529 107.10528269 461.66919868 104.65820312 461.70703125 C103.09896448 461.71289745 101.5397173 461.71686816 99.98046875 461.71875 C99.25121689 461.73312103 98.52196503 461.74749207 97.77061462 461.76229858 C94.36079286 461.73163666 92.42323319 461.48185196 89.61743164 459.47900391 C88.109375 457.2578125 88.109375 457.2578125 88.109375 453.2578125 C82.829375 453.2578125 77.549375 453.2578125 72.109375 453.2578125 C71.779375 455.2378125 71.449375 457.2178125 71.109375 459.2578125 C67.43253742 461.70903755 64.38220247 461.96278605 60.109375 461.2578125 C57.609375 459.5078125 57.609375 459.5078125 56.109375 457.2578125 C56.109375 455.9378125 56.109375 454.6178125 56.109375 453.2578125 C50.829375 453.2578125 45.549375 453.2578125 40.109375 453.2578125 C39.779375 455.2378125 39.449375 457.2178125 39.109375 459.2578125 C35.42771305 461.7122538 32.65749748 461.54295089 28.39949036 461.52523804 C27.6062789 461.52976915 26.81306744 461.53430026 25.99581927 461.53896868 C23.3289413 461.55166279 20.66226623 461.54998908 17.99536133 461.54833984 C16.08673844 461.55432212 14.17811799 461.56112696 12.26950073 461.56869507 C7.07714518 461.58639653 1.8848555 461.59105229 -3.3075273 461.59232664 C-7.64134333 461.59422404 -11.97514395 461.60158005 -16.30895406 461.60867083 C-26.53613679 461.62496941 -36.7632843 461.62983858 -46.99047852 461.62841797 C-57.53835085 461.62721728 -68.08601832 461.64830127 -78.63383883 461.6799053 C-87.68873628 461.70606883 -96.74356684 461.71678517 -105.79850179 461.71550715 C-111.20683282 461.71499738 -116.614982 461.72068819 -122.02327538 461.74186325 C-127.11308519 461.76124592 -132.20253977 461.76136977 -137.29236221 461.74682999 C-139.15796363 461.74474058 -141.02358727 461.74945061 -142.88915062 461.7615509 C-145.44178978 461.77703167 -147.99320849 461.76767704 -150.54582214 461.75228882 C-151.64590088 461.76771951 -151.64590088 461.76771951 -152.76820344 461.78346193 C-159.18016911 461.69840322 -164.30820188 459.52080697 -169.1328125 455.29296875 C-177.0523038 445.72516227 -177.04017607 436.99016755 -177.02192688 424.94662476 C-177.02404259 423.70685525 -177.02615831 422.46708574 -177.02833813 421.18974745 C-177.03225345 418.47511218 -177.03435908 415.76054671 -177.03337288 413.0459156 C-177.03177501 408.62850682 -177.03699296 404.2111205 -177.04299927 399.79371643 C-177.05109992 393.38119895 -177.05605171 386.96868543 -177.05928993 380.55616379 C-177.06479336 370.42232341 -177.08169643 360.28851655 -177.10063171 350.1546936 C-177.10698778 346.6862927 -177.11329626 343.21789172 -177.11960888 339.74949074 C-177.12198452 338.44946767 -177.12198452 338.44946767 -177.12440816 337.12318151 C-177.14233281 327.26506612 -177.15856655 317.40694837 -177.17358398 307.54882812 C-177.17495986 306.64794191 -177.17633573 305.7470557 -177.17775329 304.8188699 C-177.19970489 290.20511134 -177.21044557 275.59136144 -177.21795473 260.97758929 C-177.22602075 245.97186994 -177.24929113 230.96622495 -177.2859084 215.96054804 C-177.30794745 206.70499 -177.3175938 197.44958478 -177.31140807 188.19400181 C-177.30823775 181.85570421 -177.31953514 175.51753739 -177.34230248 169.17928027 C-177.35499034 165.52088752 -177.36111602 161.86278606 -177.34988594 158.20438194 C-177.33787593 154.24109171 -177.35659315 150.27828944 -177.37837219 146.31503296 C-177.36992966 145.15541467 -177.36148712 143.99579638 -177.35278875 142.80103815 C-177.35398566 136.64505291 -177.35398566 136.64505291 -179.84842205 131.15267372 C-180.52234902 130.52736952 -181.196276 129.90206532 -181.890625 129.2578125 C-184.79081343 123.45743564 -185.01357184 117.13571899 -185.03588867 110.74682617 C-185.04226852 109.49830368 -185.04864838 108.24978119 -185.05522156 106.96342468 C-185.05675076 105.61754394 -185.05786444 104.27166267 -185.05859375 102.92578125 C-185.06181326 101.52484606 -185.06517784 100.1239112 -185.06867981 98.72297668 C-185.07464683 95.79374412 -185.07652223 92.86454095 -185.07592773 89.93530273 C-185.07582629 86.20683389 -185.08947131 82.47855621 -185.10669994 78.75013256 C-185.11789297 75.85796771 -185.11984471 72.965848 -185.11931801 70.07366371 C-185.12048742 68.70033421 -185.12484987 67.32700314 -185.13265038 65.9536953 C-185.24150408 44.81020924 -185.24150408 44.81020924 -178.890625 37.2578125 C-172.68916135 31.11541041 -167.72026892 28.94890968 -158.88671875 28.921875 C-158.12641861 28.9152182 -157.36611847 28.9085614 -156.58277893 28.90170288 C-154.98172413 28.89161313 -153.38062758 28.88688472 -151.77954102 28.88720703 C-149.33214449 28.88281971 -146.88653269 28.84642632 -144.43945312 28.80859375 C-142.88021448 28.80272755 -141.3209673 28.79875684 -139.76171875 28.796875 C-139.03246689 28.78250397 -138.30321503 28.76813293 -137.55186462 28.75332642 C-134.14204286 28.78398834 -132.20448319 29.03377304 -129.39868164 31.03662109 C-127.890625 33.2578125 -127.890625 33.2578125 -127.890625 37.2578125 C-122.610625 37.2578125 -117.330625 37.2578125 -111.890625 37.2578125 C-111.560625 35.2778125 -111.230625 33.2978125 -110.890625 31.2578125 C-107.21378742 28.80658745 -104.16345247 28.55283895 -99.890625 29.2578125 C-97.390625 31.0078125 -97.390625 31.0078125 -95.890625 33.2578125 C-95.890625 34.5778125 -95.890625 35.8978125 -95.890625 37.2578125 C-90.610625 37.2578125 -85.330625 37.2578125 -79.890625 37.2578125 C-79.560625 35.2778125 -79.230625 33.2978125 -78.890625 31.2578125 C-75.30394187 28.86669041 -73.72665931 29.02400223 -69.47265625 29.0625 C-68.21904297 29.06894531 -66.96542969 29.07539062 -65.67382812 29.08203125 C-63.70833008 29.10716797 -63.70833008 29.10716797 -61.703125 29.1328125 C-60.36784513 29.14284611 -59.03255811 29.1519713 -57.69726562 29.16015625 C-54.42820485 29.18375958 -51.15950472 29.21668656 -47.890625 29.2578125 C-47.92414063 28.04222656 -47.95765625 26.82664062 -47.9921875 25.57421875 C-47.98212925 17.95844706 -44.75893348 11.31946098 -39.59375 5.7890625 C-28.99673947 -3.73852495 -12.95346121 -6.21592266 0 0 Z M-29.265625 21.1953125 C-31.28122151 24.41611676 -31.28122151 24.41611676 -30.890625 29.2578125 C-20.990625 29.2578125 -11.090625 29.2578125 -0.890625 29.2578125 C-1.95615193 21.79912401 -2.08330973 21.06512777 -6.890625 16.2578125 C-15.11933623 11.20327918 -23.53632403 14.10907183 -29.265625 21.1953125 Z " fill="#012634" transform="translate(207.890625,26.7421875)"/>
<path d="M0 0 C95.04 0 190.08 0 288 0 C288 41 288 41 282 48 C281.74005928 50.54809775 281.74005928 50.54809775 282.56370544 52.87413025 C283.07282251 55.9411367 283.27074519 57.4527749 281.87880135 60.26614571 C280.02920801 62.65320181 278.06677 64.83018255 275.98071289 67.01391602 C275.2191539 67.85257706 274.45759491 68.6912381 273.67295837 69.55531311 C271.13921573 72.32113569 268.56273577 75.04081723 265.97265625 77.75390625 C265.08285002 78.69228773 264.19304379 79.63066921 263.27627373 80.5974865 C259.51507971 84.55502726 255.74391713 88.50162357 251.93009281 92.40852451 C247.01221718 97.4465184 242.15043195 102.51638498 237.41918945 107.73071289 C203.15739964 145.41869368 203.15739964 145.41869368 180.19507122 146.95437145 C171.97690784 147.19246748 163.72697126 146.70943516 155.595541 145.47704124 C150.73844271 144.67212367 150.73844271 144.67212367 146.45179749 146.75733948 C144.50034934 149.77183411 144.41228617 151.47371699 145 155 C147.2692526 158.08119986 148.48308195 158.91448441 152.29980469 159.54589844 C154.21647949 159.57731934 154.21647949 159.57731934 156.171875 159.609375 C156.8542926 159.62591125 157.53671021 159.64244751 158.23980713 159.65948486 C160.40996354 159.70789839 162.57941972 159.72931865 164.75 159.75 C166.22529552 159.77816562 167.70055851 159.80809389 169.17578125 159.83984375 C172.78370198 159.91365225 176.39148972 159.96326894 180 160 C175.8532688 164.94681105 171.53903561 169.59702225 166.95703125 174.140625 C166.30675461 174.78948669 165.65647797 175.43834839 164.98649597 176.10687256 C162.93085816 178.15696716 160.87175598 180.20354043 158.8125 182.25 C157.41968916 183.63778732 156.02710895 185.02580613 154.63476562 186.4140625 C151.5784014 189.46065523 148.5198561 192.50503807 145.45930481 195.54742432 C144.97773422 196.02677429 144.49616364 196.50612427 144 197 C143.46079926 197.50638504 142.92159851 198.01277008 142.36605835 198.53450012 C140.41923046 200.62304637 140.1033739 202.60443473 139.45703125 205.37109375 C139.19172607 206.48581055 138.9264209 207.60052734 138.65307617 208.74902344 C138.37568604 209.9662207 138.0982959 211.18341797 137.8125 212.4375 C137.51641846 213.69981445 137.22033691 214.96212891 136.9152832 216.26269531 C135.92381496 220.50403577 134.95904249 224.75122405 134 229 C133.82496948 229.7752301 133.64993896 230.55046021 133.46960449 231.34918213 C131.21580153 241.34684048 128.99592872 251.35185821 126.80078125 261.36254883 C126.14147228 264.35737944 125.47015709 267.34902936 124.79296875 270.33984375 C124.04753976 273.78056769 123.51326306 276.51171857 124 280 C125.63507278 282.27150988 125.63507278 282.27150988 128 284 C136.27859718 284.99936591 145.20352129 281.95248099 153.18395996 279.90484619 C156.7738824 278.98419282 160.37131055 278.09387394 163.96875 277.203125 C164.70760437 277.01964508 165.44645874 276.83616516 166.20770264 276.64712524 C175.70974792 274.30526759 185.28128572 272.27730209 194.85644531 270.25927734 C196.74508301 269.85636475 196.74508301 269.85636475 198.671875 269.4453125 C200.32848145 269.09750732 200.32848145 269.09750732 202.01855469 268.74267578 C203.00243164 268.49759277 203.98630859 268.25250977 205 268 C206.21671387 267.70778564 206.21671387 267.70778564 207.45800781 267.40966797 C210.09758673 265.94588304 211.28461748 264.6573555 213.20858765 262.37026978 C216.71291174 258.29155717 220.39743307 254.46089715 224.20458984 250.66601562 C225.22783859 249.6401384 225.22783859 249.6401384 226.27175903 248.59353638 C228.49899788 246.36194022 230.72982149 244.1339693 232.9609375 241.90625 C234.51810062 240.34841263 236.07511531 238.7904269 237.63198853 237.2322998 C240.87982776 233.98299238 244.12945393 230.73548569 247.38037109 227.48925781 C251.55703134 223.31832771 255.72914152 219.14287949 259.89995384 214.9661026 C263.10646596 211.75598944 266.31534043 208.54824629 269.52495193 205.3412323 C271.06555304 203.80130002 272.60540687 202.26061978 274.14451218 200.7191925 C276.28453199 198.5766501 278.42770131 196.43731033 280.57177734 194.29882812 C281.21173645 193.65684479 281.85169556 193.01486145 282.51104736 192.35342407 C286.88573098 188 286.88573098 188 288 188 C288.07010965 202.25582865 288.12279822 216.51163053 288.15543652 230.76759624 C288.17110031 237.38703575 288.19235193 244.00635953 288.22631836 250.62573242 C288.25888586 257.01236422 288.27684764 263.39888462 288.28463173 269.78559303 C288.29017989 272.22367926 288.3010139 274.66175932 288.31719017 277.0997982 C288.33892927 280.51157235 288.34196833 283.92288466 288.34057617 287.3347168 C288.35675491 288.85062408 288.35675491 288.85062408 288.3732605 290.39715576 C288.33430023 299.20603004 288.33430023 299.20603004 285 303 C281.64172423 304.11942526 279.04210782 304.14202396 275.50390625 304.17578125 C274.22322266 304.19962891 272.94253906 304.22347656 271.62304688 304.24804688 C269.59095255 304.28317192 267.55946079 304.31252005 265.52709961 304.32592773 C263.5608145 304.34142531 261.59479308 304.38328093 259.62890625 304.42578125 C257.8665564 304.44765503 257.8665564 304.44765503 256.06860352 304.4699707 C252.39813412 305.10395822 251.23854936 306.07771656 249 309 C248.67 309.99 248.34 310.98 248 312 C242.72 312 237.44 312 232 312 C231.67 313.98 231.34 315.96 231 318 C227.32316242 320.45122505 224.27282747 320.70497355 220 320 C217.5 318.25 217.5 318.25 216 316 C216 314.68 216 313.36 216 312 C210.72 312 205.44 312 200 312 C199.01 310.02 198.02 308.04 197 306 C193.43409054 304.81136351 190.20165629 304.85649336 186.49098206 304.86196899 C185.71944965 304.85914771 184.94791724 304.85632643 184.15300506 304.85341966 C181.55975695 304.8450661 178.96655149 304.84373478 176.37329102 304.84228516 C174.51729207 304.83761758 172.66129426 304.83247411 170.80529785 304.82688904 C166.80454681 304.81560336 162.80380324 304.80717153 158.80304146 304.80076981 C152.47974486 304.7901008 146.15650198 304.76985979 139.83323669 304.74765015 C121.85100762 304.68568598 103.86878179 304.63167784 85.88647461 304.59863281 C75.95812154 304.58030781 66.02985846 304.55140041 56.1015715 304.5106281 C50.84544264 304.48952586 45.58942732 304.47409625 40.33325386 304.47182083 C35.39120752 304.46967885 30.44939775 304.45385565 25.5074234 304.42743111 C23.69176219 304.42021999 21.87607238 304.41814588 20.06040001 304.42153358 C17.58531844 304.42541461 15.11099753 304.41101878 12.63600159 304.39199829 C11.91431008 304.39752799 11.19261858 304.40305768 10.44905764 304.40875494 C7.39242882 304.36809114 5.28198381 304.15612892 2.5852499 302.66300011 C-0.20906495 299.73163522 -0.12466373 296.82433309 -0.12304783 292.97688007 C-0.12503888 291.93285505 -0.12702993 290.88883002 -0.12908131 289.81316787 C-0.12471205 288.08702177 -0.12471205 288.08702177 -0.12025452 286.32600403 C-0.12110894 285.10654215 -0.12196337 283.88708027 -0.12284368 282.630665 C-0.12420899 279.23975264 -0.12107237 275.84889764 -0.11606562 272.4579922 C-0.11175606 268.80361405 -0.11320791 265.14923775 -0.1139679 261.49485779 C-0.11449281 255.16137584 -0.11134941 248.82790418 -0.10573006 242.49442482 C-0.09761065 233.33722344 -0.09499938 224.18002705 -0.09374207 215.02282246 C-0.09155224 200.16666072 -0.08489403 185.31050447 -0.07543945 170.4543457 C-0.06626354 156.02107775 -0.05919505 141.58781129 -0.05493164 127.15454102 C-0.05466364 126.25612911 -0.05439565 125.3577172 -0.05411953 124.43208069 C-0.05204016 117.40614051 -0.05008322 110.38020031 -0.04816496 103.35426009 C-0.03872751 68.90283502 -0.0186101 34.45142369 0 0 Z " fill="#DEF6FE" transform="translate(48,168)"/>
<path d="M0 0 C2.5 1.75 2.5 1.75 4 4 C4 5.32 4 6.64 4 8 C9.28 8 14.56 8 20 8 C20.99 9.98 21.98 11.96 23 14 C25.97199788 15.48599894 29.00427387 15.15375313 32.26382446 15.15821838 C33.0209905 15.16315636 33.77815654 15.16809434 34.558267 15.17318195 C37.1086666 15.18860399 39.65904093 15.19693026 42.20947266 15.20532227 C44.03240686 15.2148971 45.85533883 15.22490694 47.67826843 15.23532104 C52.63872132 15.262419 57.59918377 15.28340203 62.55966997 15.30332303 C67.73937261 15.32515248 72.91904561 15.35255601 78.09872437 15.37937927 C87.9124061 15.42934737 97.72610426 15.4742709 107.53981817 15.51740164 C118.71016735 15.56673887 129.8804868 15.62167001 141.05080724 15.67708123 C164.03384377 15.79096446 187.0169088 15.89778965 210 16 C211.4539046 19.46111266 212.17723752 22.05916867 212.25 25.8125 C212.64018204 30.83984552 214.36217753 33.55164192 217.625 37.30859375 C221.49437311 42.06836238 220.30757158 49.27285106 220.375 55.0625 C220.41238281 56.25294922 220.44976562 57.44339844 220.48828125 58.66992188 C220.57893866 67.83135639 218.87607469 74.33974835 212.97265625 81.4375 C212.34230469 81.953125 211.71195312 82.46875 211.0625 83 C210.43472656 83.53625 209.80695313 84.0725 209.16015625 84.625 C203.16227797 88.44281764 197.15363053 88.28439811 190.28965759 88.25396729 C189.21000105 88.25708727 188.13034451 88.26020725 187.0179711 88.26342177 C183.39986467 88.27139973 179.78192604 88.26507882 176.16381836 88.25878906 C173.57009279 88.26149899 170.97636799 88.26505993 168.38264465 88.26940918 C162.06912422 88.27829827 155.75565136 88.27638342 149.44212907 88.2705839 C144.31120853 88.26606591 139.18030131 88.2654551 134.04937935 88.26763153 C132.95372113 88.26809123 132.95372113 88.26809123 131.8359284 88.26856022 C130.35203826 88.26919967 128.86814812 88.2698481 127.38425798 88.2705054 C113.47310081 88.27620717 99.56197001 88.26965299 85.65081716 88.25890467 C73.71405697 88.24996742 61.77733567 88.25152292 49.84057617 88.26074219 C35.97741781 88.27144428 22.11428254 88.27565984 8.25112063 88.26951766 C6.77301538 88.26888056 5.29491014 88.26825182 3.81680489 88.26763153 C3.08955326 88.26732298 2.36230164 88.26701443 1.61301209 88.26669653 C-3.5123368 88.26496955 -8.63767104 88.26788472 -13.76301765 88.27259064 C-20.66011939 88.27878416 -27.55714633 88.27437712 -34.4542408 88.26280212 C-36.98869708 88.26015274 -39.52315953 88.26092536 -42.05761337 88.26532745 C-45.51070693 88.27077317 -48.96356291 88.2639604 -52.41664124 88.25396729 C-53.92947137 88.26065945 -53.92947137 88.26065945 -55.47286373 88.26748681 C-63.85207508 88.22028616 -63.85207508 88.22028616 -68 86 C-68.11595557 77.61149531 -68.2047454 69.22332656 -68.25906086 60.83421803 C-68.28513253 56.93858809 -68.32048427 53.04350727 -68.37719727 49.14819336 C-68.43160664 45.38747974 -68.46143883 41.62729356 -68.47438622 37.86621666 C-68.48361035 36.43285508 -68.50162371 34.99952172 -68.52865028 33.56638527 C-68.56504759 31.55601894 -68.56704327 29.54511953 -68.56762695 27.53442383 C-68.57873001 26.39080887 -68.58983307 25.24719391 -68.60127258 24.06892395 C-67.80918587 20.02607556 -66.17361092 18.53995822 -63 16 C-59.83374023 15.37231445 -59.83374023 15.37231445 -56.30859375 15.36328125 C-55.03435547 15.34330078 -53.76011719 15.32332031 -52.44726562 15.30273438 C-51.11067433 15.30453373 -49.77408425 15.30780341 -48.4375 15.3125 C-45.81078552 15.30075517 -43.18522501 15.27152975 -40.55859375 15.23828125 C-39.39642334 15.23868408 -38.23425293 15.23908691 -37.03686523 15.23950195 C-34.02134569 15.00168342 -32.40066946 14.81630721 -30 13 C-29.34 11.35 -28.68 9.7 -28 8 C-22.72 8 -17.44 8 -12 8 C-11.67 6.02 -11.34 4.04 -11 2 C-7.32316242 -0.45122505 -4.27282747 -0.70497355 0 0 Z " fill="#3DB2DA" transform="translate(108,56)"/>
<path d="M0 0 C1.234375 1.2578125 1.234375 1.2578125 2.75 3.125 C7.94156601 9.24754304 13.71725919 14.79578372 19.41967773 20.43603516 C22.94055698 23.92047089 26.43121065 27.43461662 29.91796875 30.953125 C31.34109525 32.38546693 32.76427343 33.81775751 34.1875 35.25 C34.91130859 35.9821875 35.63511719 36.714375 36.38085938 37.46875 C37.07373047 38.16484375 37.76660156 38.8609375 38.48046875 39.578125 C39.42249146 40.52800293 39.42249146 40.52800293 40.38354492 41.49707031 C41.94390328 43.08924975 41.94390328 43.08924975 44 44 C42.40476175 47.9425255 39.68131155 50.59302432 36.71029663 53.5302124 C36.16547532 54.07674257 35.620654 54.62327273 35.05932295 55.18636441 C33.23225694 57.01672504 31.39813375 58.83984509 29.56396484 60.66308594 C28.25291214 61.97357453 26.94229962 63.28450362 25.63209534 64.59584045 C22.07274259 68.15576769 18.50725126 71.70948913 14.94064283 75.26214504 C11.21480448 78.97549204 7.49461844 82.69449283 3.77383423 86.41290283 C-3.27341893 93.45393653 -10.32575543 100.4898559 -17.37992322 107.52396131 C-25.41035736 115.53205094 -33.43512213 123.54581142 -41.45941091 131.56005812 C-57.96663093 148.0463656 -74.48097346 164.52552308 -91 181 C-92.1078354 180.05893615 -93.21444803 179.11643273 -94.32055664 178.17333984 C-94.93693497 177.64864105 -95.55331329 177.12394226 -96.18836975 176.58334351 C-98.71791903 174.37254722 -101.07881136 172.01599944 -103.4375 169.625 C-104.30246094 168.75101563 -105.16742188 167.87703125 -106.05859375 166.9765625 C-106.69925781 166.32429687 -107.33992188 165.67203125 -108 165 C-106.4979758 161.48768583 -104.47638941 159.23162208 -101.78001404 156.54623413 C-100.45282852 155.21709236 -100.45282852 155.21709236 -99.09883118 153.86109924 C-98.11602469 152.88696524 -97.13312672 151.91292353 -96.15014648 150.93896484 C-95.11656767 149.90758774 -94.0834366 148.87576177 -93.05072021 147.84352112 C-90.8278936 145.62362606 -88.60194911 143.40692258 -86.37353325 141.1926384 C-82.85213364 137.69350246 -79.33783363 134.18729427 -75.82447815 130.68008423 C-70.26921247 125.13619686 -64.70929298 119.59700387 -59.1473313 114.05983508 C-49.17983099 104.13668484 -39.21793119 94.20791969 -29.26120812 84.27395594 C-25.76505959 80.78623014 -22.26612235 77.30133292 -18.76494014 73.8186605 C-16.59134298 71.65568232 -14.41975597 69.49069438 -12.24867249 67.32519341 C-11.23890366 66.31890422 -10.22826378 65.31348827 -9.21670723 64.3089962 C-7.83985909 62.94155536 -6.46633439 61.5707706 -5.09300232 60.19979858 C-4.32221564 59.43253134 -3.55142897 58.66526409 -2.75728512 57.87474632 C-0.28922097 55.24171078 -0.02250018 54.24750202 0.3125 50.5625 C0.34618769 47.03682848 0.34618769 47.03682848 -1.625 45.0625 C-4.89560841 43.59933308 -6.43038855 43.31353626 -10 44 C-16.67486102 48.8353964 -22.38212844 55.24583939 -28.1796875 61.06616211 C-29.17571365 62.06247095 -30.17196127 63.05855841 -31.16841125 64.05444336 C-33.84984682 66.73559417 -36.52820642 69.41979819 -39.20598984 72.1045959 C-42.0135309 74.91842435 -44.82393888 77.72938651 -47.6340332 80.54066467 C-52.94463226 85.85436125 -58.2526789 91.17059984 -63.55979443 96.48777539 C-69.60624248 102.54543381 -75.65555919 108.6002241 -81.70510864 114.65478504 C-94.13991505 127.10002006 -106.57114641 139.54882005 -119 152 C-122.01409306 150.55695686 -124.10472016 149.13408132 -126.453125 146.7421875 C-127.071875 146.11699219 -127.690625 145.49179687 -128.328125 144.84765625 C-129.27945313 143.87119141 -129.27945313 143.87119141 -130.25 142.875 C-130.8996875 142.21628906 -131.549375 141.55757812 -132.21875 140.87890625 C-133.81712206 139.25702872 -135.40973706 137.62981741 -137 136 C-131.28387111 129.01943247 -124.88225089 122.73398393 -118.50878906 116.36352539 C-117.24003055 115.09177132 -115.97147621 113.81981353 -114.70310974 112.54766846 C-111.27404975 109.10981195 -107.84178752 105.67517016 -104.40864658 102.24138951 C-102.2642485 100.09627929 -100.12056455 97.95045809 -97.9771347 95.80438042 C-90.50144111 88.31945299 -83.02318648 80.83709549 -75.54248047 73.35717773 C-68.56343398 66.37873388 -61.59000459 59.39471135 -54.61914086 52.40809447 C-48.63278515 46.40869157 -42.64260933 40.4131214 -36.64940619 34.42055887 C-33.07005401 30.84146219 -29.49228725 27.26081436 -25.91834259 23.67631721 C-22.56403505 20.31237438 -19.20502184 16.95320465 -15.84224129 13.59773254 C-14.60610462 12.36264693 -13.37169074 11.12583442 -12.13908958 9.88722038 C-10.46310649 8.20358861 -8.78115483 6.52616259 -7.09747314 4.85023499 C-6.35945225 4.10449875 -6.35945225 4.10449875 -5.60652184 3.34369713 C-2.2282729 0 -2.2282729 0 0 0 Z " fill="#FCEE00" transform="translate(344,236)"/>
<path d="M0 0 C0.07010965 14.25582865 0.12279822 28.51163053 0.15543652 42.76759624 C0.17110031 49.38703575 0.19235193 56.00635953 0.22631836 62.62573242 C0.25888586 69.01236422 0.27684764 75.39888462 0.28463173 81.78559303 C0.29017989 84.22367926 0.3010139 86.66175932 0.31719017 89.0997982 C0.33892927 92.51157235 0.34196833 95.92288466 0.34057617 99.3347168 C0.35675491 100.85062408 0.35675491 100.85062408 0.3732605 102.39715576 C0.33430023 111.20603004 0.33430023 111.20603004 -3 115 C-6.35827577 116.11942526 -8.95789218 116.14202396 -12.49609375 116.17578125 C-14.41711914 116.21155273 -14.41711914 116.21155273 -16.37695312 116.24804688 C-18.40904745 116.28317192 -20.44053921 116.31252005 -22.47290039 116.32592773 C-24.4391855 116.34142531 -26.40520692 116.38328093 -28.37109375 116.42578125 C-29.54599365 116.44036377 -30.72089355 116.45494629 -31.93139648 116.4699707 C-35.60186588 117.10395822 -36.76145064 118.07771656 -39 121 C-39.33 121.99 -39.66 122.98 -40 124 C-45.28 124 -50.56 124 -56 124 C-56.33 125.98 -56.66 127.96 -57 130 C-60.67683758 132.45122505 -63.72717253 132.70497355 -68 132 C-70.5 130.25 -70.5 130.25 -72 128 C-72 126.68 -72 125.36 -72 124 C-77.28 124 -82.56 124 -88 124 C-88.99 122.02 -89.98 120.04 -91 118 C-94.56590946 116.81136351 -97.79834371 116.85649336 -101.50901794 116.86196899 C-102.28055035 116.85914771 -103.05208276 116.85632643 -103.84699494 116.85341966 C-106.44024305 116.8450661 -109.03344851 116.84373478 -111.62670898 116.84228516 C-113.48270793 116.83761758 -115.33870574 116.83247411 -117.19470215 116.82688904 C-121.19545319 116.81560336 -125.19619676 116.80717153 -129.19695854 116.80076981 C-135.52025514 116.7901008 -141.84349802 116.76985979 -148.16676331 116.74765015 C-166.14899238 116.68568598 -184.13121821 116.63167784 -202.11352539 116.59863281 C-212.04187846 116.58030781 -221.97014154 116.55140041 -231.8984285 116.5106281 C-237.15455736 116.48952586 -242.41057268 116.47409625 -247.66674614 116.47182083 C-252.60879248 116.46967885 -257.55060225 116.45385565 -262.4925766 116.42743111 C-264.30823781 116.42021999 -266.12392762 116.41814588 -267.93959999 116.42153358 C-270.41468156 116.42541461 -272.88900247 116.41101878 -275.36399841 116.39199829 C-276.08568992 116.39752799 -276.80738142 116.40305768 -277.55094236 116.40875494 C-280.60757118 116.36809114 -282.71801619 116.15612892 -285.4147501 114.66300011 C-288.48899406 111.4379767 -288.10786639 108.03157402 -288.0625 103.8125 C-288.04896484 102.18248047 -288.04896484 102.18248047 -288.03515625 100.51953125 C-288.02355469 99.68808594 -288.01195312 98.85664063 -288 98 C-287.01 98.33 -286.02 98.66 -285 99 C-281.93722443 99.10085454 -278.89706683 99.14341145 -275.83403015 99.14044189 C-274.40933378 99.14489858 -274.40933378 99.14489858 -272.95585567 99.1494453 C-269.75921722 99.15814741 -266.56261616 99.15964182 -263.3659668 99.16113281 C-261.07972127 99.1657599 -258.79347651 99.17078441 -256.50723267 99.17617798 C-250.28613176 99.1893141 -244.06504166 99.19574924 -237.84392905 99.20018864 C-233.95948182 99.20311726 -230.07503755 99.20722166 -226.19059181 99.21169281 C-215.43579408 99.22380292 -204.68100023 99.23418467 -193.9261961 99.2375679 C-193.23785741 99.23778747 -192.54951873 99.23800703 -191.84032129 99.23823325 C-191.15033547 99.23845153 -190.46034964 99.23866981 -189.74945515 99.2388947 C-188.35128065 99.23933817 -186.95310614 99.23978473 -185.55493164 99.24023438 C-184.86138877 99.2404558 -184.16784589 99.24067723 -183.45328657 99.24090537 C-172.21544447 99.24485338 -160.97766723 99.26230754 -149.73985019 99.2855939 C-138.20229425 99.30930839 -126.66478009 99.32151181 -115.12719852 99.32293582 C-108.64920586 99.32398523 -102.17130464 99.32992201 -95.69333458 99.34775543 C-89.60060839 99.3642017 -83.50804272 99.36640832 -77.41530228 99.35761642 C-75.17797352 99.35684422 -72.94063625 99.36121282 -70.70332909 99.37107468 C-67.6510005 99.38374096 -64.59924504 99.3779461 -61.54692078 99.36749268 C-60.65985323 99.37554908 -59.77278569 99.38360548 -58.85883731 99.39190602 C-53.82372542 99.35152693 -50.35853382 98.80069185 -46 96 C-43.95911288 93.73847644 -42.35925488 91.71850977 -41 89 C-41.13001576 87.09033277 -41.13001576 87.09033277 -41.52124023 84.90966797 C-47.04032913 47.9999168 -47.04032913 47.9999168 -37.09472656 33.76220703 C-10.1940986 0 -10.1940986 0 0 0 Z " fill="#7ED0ED" transform="translate(336,356)"/>
<path d="M0 0 C0.66569504 -0.00554901 1.33139008 -0.01109802 2.01725769 -0.01681519 C4.20691044 -0.02857861 6.39447797 -0.00437471 8.58398438 0.02148438 C10.11185614 0.02319649 11.63973084 0.02312877 13.16760254 0.0213623 C16.36543997 0.02301365 19.56257476 0.04167599 22.76025391 0.07324219 C26.85265379 0.1129199 30.94413402 0.11728643 35.03668976 0.10977936 C38.19037249 0.1067051 41.3438497 0.11884625 44.4974823 0.13591003 C46.00610565 0.14292529 47.5147523 0.14606636 49.02339172 0.1452179 C51.13450962 0.14702221 53.24453978 0.16845545 55.35546875 0.1953125 C57.15485901 0.20794128 57.15485901 0.20794128 58.99060059 0.2208252 C62.47938538 0.65256382 64.38053785 1.52169287 67.17773438 3.61523438 C68.42730233 6.11437029 68.31815741 7.83163613 68.33886719 10.62817383 C68.34847473 11.67298416 68.35808228 12.71779449 68.36798096 13.79426575 C68.37223083 14.92756821 68.37648071 16.06087067 68.38085938 17.22851562 C68.38655945 18.39021774 68.39225952 19.55191986 68.39813232 20.74882507 C68.40759233 23.2110401 68.41412026 25.67326785 68.41796875 28.13549805 C68.42766747 31.9017551 68.45867946 35.66746503 68.49023438 39.43359375 C68.49676492 41.82356446 68.50201519 44.21353908 68.50585938 46.60351562 C68.51820618 47.73074539 68.53055298 48.85797516 68.54327393 50.0193634 C68.54027283 51.07363022 68.53727173 52.12789703 68.53417969 53.21411133 C68.53964813 54.60071709 68.53964813 54.60071709 68.54522705 56.01533508 C68.09672464 59.18835369 67.0904652 61.05960431 65.17773438 63.61523438 C61.7763977 64.74901327 59.15369216 64.75607614 55.56665039 64.77636719 C54.89964111 64.78133209 54.23263184 64.786297 53.54541016 64.79141235 C51.34080979 64.80600722 49.13628134 64.81283076 46.93164062 64.81835938 C45.39851378 64.82411214 43.86538694 64.82986986 42.33226013 64.83563232 C39.11855738 64.84613407 35.9048796 64.85198243 32.69116211 64.85546875 C28.57405421 64.86095796 24.45727627 64.88499827 20.34027195 64.9134407 C17.17383356 64.93206534 14.00747479 64.93727254 10.84098625 64.93880463 C9.32313161 64.94183107 7.80527836 64.94985938 6.28747749 64.96298981 C4.16413352 64.98005061 2.04159765 64.97817077 -0.08178711 64.97167969 C-1.28963364 64.97532532 -2.49748016 64.97897095 -3.7419281 64.98272705 C-7.10057853 64.58203089 -8.46788703 64.00404465 -10.82226562 61.61523438 C-11.81476399 58.63773928 -11.97162919 56.60049503 -12.01513672 53.48876953 C-12.03923111 51.92166733 -12.03923111 51.92166733 -12.06381226 50.32290649 C-12.10828905 45.55512174 -12.14930867 40.78747482 -12.17236328 36.01953125 C-12.18894187 33.50348676 -12.21625644 30.98748973 -12.25439453 28.47167969 C-12.30908779 24.84480347 -12.33102484 21.21902962 -12.34570312 17.59179688 C-12.3683725 16.46770416 -12.39104187 15.34361145 -12.41439819 14.18545532 C-12.41154816 13.1344162 -12.40869812 12.08337708 -12.40576172 11.00048828 C-12.41384857 10.07910065 -12.42193542 9.15771301 -12.43026733 8.20840454 C-10.86931303 1.55082436 -6.25450608 -0.01071157 0 0 Z " fill="#002634" transform="translate(83.822265625,383.384765625)"/>
<path d="M0 0 C2.90850921 2.90288347 5.80794771 5.81431673 8.69921875 8.734375 C10.02860076 10.07296143 11.35802871 11.41150224 12.6875 12.75 C13.70166992 13.77673828 13.70166992 13.77673828 14.73632812 14.82421875 C15.38408203 15.47519531 16.03183594 16.12617188 16.69921875 16.796875 C17.28533936 17.38823242 17.87145996 17.97958984 18.4753418 18.58886719 C19.96381818 20.09829824 19.96381818 20.09829824 22 21 C20.40476175 24.9425255 17.68131155 27.59302432 14.71029663 30.5302124 C14.16547532 31.07674257 13.620654 31.62327273 13.05932295 32.18636441 C11.23225694 34.01672504 9.39813375 35.83984509 7.56396484 37.66308594 C6.25291214 38.97357453 4.94229962 40.28450362 3.63209534 41.59584045 C0.07274259 45.15576769 -3.49274874 48.70948913 -7.05935717 52.26214504 C-10.78519552 55.97549204 -14.50538156 59.69449283 -18.22616577 63.41290283 C-25.27341893 70.45393653 -32.32575543 77.4898559 -39.37992322 84.52396131 C-47.41035736 92.53205094 -55.43512213 100.54581142 -63.45941091 108.56005812 C-79.96663093 125.0463656 -96.48097346 141.52552308 -113 158 C-114.1078354 157.05893615 -115.21444803 156.11643273 -116.32055664 155.17333984 C-117.24512413 154.38629166 -117.24512413 154.38629166 -118.18836975 153.58334351 C-120.71791903 151.37254722 -123.07881136 149.01599944 -125.4375 146.625 C-126.30246094 145.75101563 -127.16742188 144.87703125 -128.05859375 143.9765625 C-128.69925781 143.32429687 -129.33992187 142.67203125 -130 142 C-128.4979758 138.48768583 -126.47638941 136.23162208 -123.78001404 133.54623413 C-122.45282852 132.21709236 -122.45282852 132.21709236 -121.09883118 130.86109924 C-120.11602469 129.88696524 -119.13312672 128.91292353 -118.15014648 127.93896484 C-117.11656767 126.90758774 -116.0834366 125.87576177 -115.05072021 124.84352112 C-112.8278936 122.62362606 -110.60194911 120.40692258 -108.37353325 118.1926384 C-104.85213364 114.69350246 -101.33783363 111.18729427 -97.82447815 107.68008423 C-92.26921247 102.13619686 -86.70929298 96.59700387 -81.1473313 91.05983508 C-71.17983099 81.13668484 -61.21793119 71.20791969 -51.26120812 61.27395594 C-47.76505959 57.78623014 -44.26612235 54.30133292 -40.76494014 50.8186605 C-38.59134298 48.65568232 -36.41975597 46.49069438 -34.24867249 44.32519341 C-33.23890366 43.31890422 -32.22826378 42.31348827 -31.21670723 41.3089962 C-29.83985909 39.94155536 -28.46633439 38.5707706 -27.09300232 37.19979858 C-26.32221564 36.43253134 -25.55142897 35.66526409 -24.75728512 34.87474632 C-22.22290656 32.17096374 -22.01116186 31.31253206 -21.875 27.5 C-21.75226053 24.14964129 -21.75226053 24.14964129 -23 22 C-21.989375 21.154375 -20.97875 20.30875 -19.9375 19.4375 C-12.9400442 13.33845173 -6.5184378 6.6011914 0 0 Z " fill="#D1C400" transform="translate(366,259)"/>
<path d="M0 0 C6.61072987 5.4335882 12.59214196 11.46446043 18.62109375 17.5234375 C19.73188169 18.63609385 20.8428931 19.74852716 21.95411682 20.86074829 C24.85788934 23.7683127 27.75864436 26.67886905 30.65875244 29.59008789 C33.62678263 32.56840429 36.59769662 35.54384106 39.56835938 38.51953125 C45.38171083 44.34356123 51.19187334 50.1707595 57 56 C53.03627475 60.75085867 48.90205218 65.23613112 44.5078125 69.58984375 C43.91700897 70.17923233 43.32620544 70.76862091 42.71749878 71.37586975 C40.85569596 73.23213727 38.99042255 75.08487085 37.125 76.9375 C35.85132989 78.20614672 34.57789029 79.4750249 33.3046875 80.74414062 C30.20577957 83.83210554 27.10375699 86.91690929 24 90 C20.14691234 88.42476254 17.55256086 85.82252556 14.68066406 82.90771484 C14.16314072 82.39048355 13.64561737 81.87325226 13.1124115 81.34034729 C11.40869711 79.63524329 9.71217022 77.92317232 8.015625 76.2109375 C6.83350593 75.025087 5.65094355 73.83967826 4.46795654 72.6546936 C1.35971272 69.53882362 -1.74247737 66.41699366 -4.84344482 63.29388428 C-8.01048502 60.10636381 -11.18321387 56.9245168 -14.35546875 53.7421875 C-20.57589403 47.50033024 -26.78993537 41.25216515 -33 35 C-31.67005617 32.04734888 -30.22220684 29.97649784 -27.92724609 27.70019531 C-27.30675385 27.07985413 -26.6862616 26.45951294 -26.04696655 25.82037354 C-25.37920197 25.16293152 -24.71143738 24.5054895 -24.0234375 23.828125 C-23.33819 23.1457074 -22.6529425 22.46328979 -21.94692993 21.76019287 C-19.76094155 19.58538402 -17.56809571 17.41763928 -15.375 15.25 C-13.89016745 13.7752001 -12.40578694 12.29994494 -10.921875 10.82421875 C-7.2864709 7.21084552 -3.64490176 3.60379147 0 0 Z " fill="#928B24" transform="translate(382,185)"/>
<path d="M0 0 C3.22899426 -0.0875127 6.45768116 -0.14056146 9.6875 -0.1875 C10.59951172 -0.21263672 11.51152344 -0.23777344 12.45117188 -0.26367188 C21.00895523 -0.35702951 21.00895523 -0.35702951 25 3 C26.42666016 5.85332032 26.14307693 8.29188273 26.16113281 11.48168945 C26.16609772 12.14694641 26.17106262 12.81220337 26.17617798 13.49761963 C26.19080622 15.70285063 26.19760326 17.90800966 26.203125 20.11328125 C26.20887667 21.64544171 26.2146344 23.17760215 26.22039795 24.70976257 C26.23091034 27.92524552 26.23675119 31.14070345 26.24023438 34.35620117 C26.24571442 38.4721189 26.26973067 42.58770503 26.29820633 46.70351887 C26.31685251 49.86999977 26.32203939 53.03640119 26.32357025 56.20293236 C26.32659372 57.7199605 26.33461198 59.23698735 26.34775543 60.75396156 C26.36485519 62.8796045 26.36292645 65.0044427 26.35644531 67.13012695 C26.36009094 68.33876907 26.36373657 69.54741119 26.36749268 70.79267883 C25.96251872 74.32712084 25.17941535 76.20819075 23 79 C20.04866987 79.98377671 18.14243306 80.12710348 15.06614017 80.13142776 C14.04199892 80.13526891 13.01785767 80.13911005 11.96268183 80.1430676 C10.26981056 80.14176787 10.26981056 80.14176787 8.54273987 80.14044189 C7.34651802 80.14341302 6.15029616 80.14638414 4.91782516 80.1494453 C1.5916487 80.15663322 -1.73447613 80.1593052 -5.06065667 80.16004276 C-8.64558691 80.16189221 -12.23050593 80.1694389 -15.81542969 80.17617798 C-23.6561781 80.18976521 -31.4969214 80.19578636 -39.33767962 80.20018864 C-44.2311894 80.20294988 -49.1246972 80.20718696 -54.01820564 80.21169281 C-67.56097381 80.22388499 -81.1037404 80.23418505 -94.64651394 80.2375679 C-95.51341242 80.23778747 -96.38031091 80.23800703 -97.27347905 80.23823325 C-98.14247267 80.23845153 -99.01146629 80.23866981 -99.90679306 80.2388947 C-101.66776113 80.23933817 -103.4287292 80.23978473 -105.18969727 80.24023438 C-106.06320165 80.2404558 -106.93670603 80.24067723 -107.83668024 80.24090537 C-121.9987372 80.24485557 -136.16074278 80.26231657 -150.32277989 80.2855939 C-164.8548557 80.30928716 -179.38690571 80.32176879 -193.91900116 80.32293582 C-202.08148596 80.32385362 -210.24390378 80.32963236 -218.40637016 80.34775543 C-225.35503239 80.36312898 -232.30360692 80.36829312 -239.25228291 80.36001733 C-242.79910709 80.35610129 -246.34575453 80.35708658 -249.89255714 80.37107468 C-253.73370057 80.38608549 -257.57459307 80.37797551 -261.41575623 80.36749268 C-262.54210635 80.37554908 -263.66845648 80.38360548 -264.82893842 80.39190602 C-265.85568743 80.38531618 -266.88243643 80.37872633 -267.94029903 80.3719368 C-268.82721839 80.37253389 -269.71413774 80.37313097 -270.62793344 80.37374616 C-273.54761473 79.91371705 -274.90405274 79.06758258 -277 77 C-277.75 73.3125 -277.75 73.3125 -278 70 C-277.27220738 70.16223169 -276.54441476 70.32446338 -275.79456782 70.49161118 C-273.21367075 70.96112894 -270.90344851 71.12833589 -268.28691483 71.13422108 C-266.90088275 71.14090784 -266.90088275 71.14090784 -265.48685002 71.14772969 C-264.48034296 71.14754533 -263.47383589 71.14736097 -262.43682861 71.14717102 C-260.82285883 71.15268605 -260.82285883 71.15268605 -259.1762836 71.1583125 C-255.56445768 71.1693412 -251.95266054 71.17319179 -248.34082031 71.17700195 C-245.75373239 71.18326712 -243.16664536 71.18991397 -240.57955933 71.19691467 C-232.81290663 71.21664899 -225.04625268 71.22674035 -217.27958119 71.23564246 C-213.61972349 71.24002937 -209.95986724 71.24539505 -206.30001068 71.25063133 C-194.1305687 71.26763876 -181.9611276 71.2821331 -169.79167557 71.28938007 C-166.63585662 71.29128987 -163.48003767 71.29321022 -160.32421875 71.29516602 C-159.53988475 71.29564976 -158.75555075 71.2961335 -157.94744906 71.2966319 C-145.24061094 71.30493298 -132.53386693 71.33027337 -119.82706991 71.36274669 C-106.77409303 71.39583221 -93.72116397 71.41383008 -80.66814494 71.41702431 C-73.34219315 71.41918777 -66.0163787 71.42791256 -58.69046783 71.45348549 C-51.79906711 71.47748665 -44.9079172 71.48100883 -38.01648331 71.47072411 C-35.48853611 71.47022809 -32.96057684 71.47656776 -30.43266678 71.49028015 C-26.97851666 71.50796725 -23.5252567 71.50090753 -20.07110596 71.48774719 C-19.07352178 71.49871644 -18.0759376 71.50968568 -17.0481236 71.52098733 C-9.95453698 71.45584832 -3.53677341 70.22462213 1.85519099 65.30854589 C9.14931748 57.52854611 9.49851447 49.82957206 9.4375 39.5625 C9.45748047 38.37333984 9.47746094 37.18417969 9.49804688 35.95898438 C9.49408313 28.8202783 8.90184072 24.03268322 5 18 C4.4755127 17.50983398 3.95102539 17.01966797 3.41064453 16.51464844 C1.0430421 13.97248757 1.15078962 10.63642832 0.8125 7.3125 C0.73064453 6.61060547 0.64878906 5.90871094 0.56445312 5.18554688 C0.36470727 3.45833274 0.18080012 1.72929997 0 0 Z " fill="#027AA3" transform="translate(318,72)"/>
<path d="M0 0 C0.928125 -0.01160156 0.928125 -0.01160156 1.875 -0.0234375 C9.46035162 1.39881593 14.66451832 7.259767 20 12.375 C20.86165771 13.19581055 20.86165771 13.19581055 21.74072266 14.03320312 C23.60948114 15.82316749 25.46303596 17.62761876 27.3125 19.4375 C27.89902344 20.00251221 28.48554688 20.56752441 29.08984375 21.1496582 C34.07808828 26.10017771 39.17600183 31.57352724 39.625 38.875 C38.94157356 48.91701085 29.92261207 55.81857687 23.1875 62.375 C22.1978686 63.349551 21.20893055 64.3248066 20.22070312 65.30078125 C17.82050769 67.66585188 15.41357076 70.02359359 13 72.375 C9.55323 70.89157 7.32656699 68.94449812 4.69042969 66.29248047 C3.84986023 65.45175995 3.00929077 64.61103943 2.14324951 63.74484253 C1.24519592 62.83646637 0.34714233 61.92809021 -0.578125 60.9921875 C-1.5046991 60.06278351 -2.43127319 59.13337952 -3.38592529 58.17581177 C-5.84315789 55.7109615 -8.29432361 53.24016334 -10.7442627 50.76806641 C-13.24773809 48.24409235 -15.75692063 45.72580612 -18.265625 43.20703125 C-23.18267525 38.26856403 -28.09333788 33.323788 -33 28.375 C-30.4874912 23.02828447 -26.35993203 19.40032178 -22.20654297 15.26586914 C-20.75982731 13.8223059 -19.32692792 12.36595848 -17.89453125 10.90820312 C-16.97542969 9.98845703 -16.05632812 9.06871094 -15.109375 8.12109375 C-14.27374023 7.28247803 -13.43810547 6.4438623 -12.57714844 5.57983398 C-8.88637881 2.422261 -4.97402816 -0.06217535 0 0 Z " fill="#F37896" transform="translate(433,151.625)"/>
<path d="M0 0 C1.53914062 -0.00290039 1.53914062 -0.00290039 3.109375 -0.00585938 C4.1715625 0.01798828 5.23375 0.04183594 6.328125 0.06640625 C7.37484375 0.05544922 8.4215625 0.04449219 9.5 0.03320312 C17.57458668 0.10890238 23.90732274 1.49611471 30.13671875 6.8125 C30.75675781 7.55628906 31.37679687 8.30007812 32.015625 9.06640625 C32.65371094 9.80761719 33.29179687 10.54882812 33.94921875 11.3125 C38.45786973 17.72408281 37.97908193 24.25199039 38.015625 31.81640625 C38.04849609 32.99783203 38.08136719 34.17925781 38.11523438 35.39648438 C38.16912876 44.24006321 36.68152529 51.15004458 30.58764648 57.80151367 C23.26578758 64.90141183 15.63769616 64.97219296 5.890625 64.94140625 C4.85873047 64.95751953 3.82683594 64.97363281 2.76367188 64.99023438 C1.77044922 64.99087891 0.77722656 64.99152344 -0.24609375 64.9921875 C-1.14416748 64.99516846 -2.04224121 64.99814941 -2.9675293 65.0012207 C-5.92479014 64.55261603 -7.27404303 63.68507166 -9.421875 61.62890625 C-10.41437337 58.65141115 -10.57123856 56.61416691 -10.61474609 53.50244141 C-10.63884048 51.9353392 -10.63884048 51.9353392 -10.66342163 50.33657837 C-10.70789843 45.56879361 -10.74891804 40.8011467 -10.77197266 36.03320312 C-10.78855124 33.51715864 -10.81586582 31.00116161 -10.85400391 28.48535156 C-10.90869716 24.85847534 -10.93063422 21.23270149 -10.9453125 17.60546875 C-10.96798187 16.48137604 -10.99065125 15.35728333 -11.01400757 14.1991272 C-10.99303384 6.46441514 -10.99303384 6.46441514 -8.22802734 2.41967773 C-5.15872963 0.46097765 -3.60614056 -0.00283601 0 0 Z " fill="#FDF9B1" transform="translate(226.421875,79.37109375)"/>
<path d="M0 0 C13.2 0 26.4 0 40 0 C40.13814834 5.7126897 40.25744952 11.41953573 40.32958984 17.13256836 C40.35967215 19.07352382 40.40054963 21.01434436 40.45263672 22.95483398 C40.52583255 25.75278065 40.55954101 28.54892336 40.5859375 31.34765625 C40.61690521 32.2083522 40.64787292 33.06904816 40.67977905 33.95582581 C40.68318801 40.12645627 40.68318801 40.12645627 38.58917236 42.80392456 C37.7534671 43.63272629 37.7534671 43.63272629 36.90087891 44.47827148 C35.17592411 46.08031496 35.17592411 46.08031496 34 48 C34.02332698 50.40531924 34.02332698 50.40531924 34.58154297 52.91162109 C35.09659143 55.9897751 35.31794949 57.42077664 33.79986572 60.18634033 C31.8744246 62.41103067 29.85191898 64.41257069 27.6953125 66.4140625 C26.5647493 67.52483658 26.5647493 67.52483658 25.41134644 68.65805054 C23.00720705 71.00742536 20.56734091 73.31543161 18.125 75.625 C16.48844262 77.21493735 14.85429726 78.80736148 13.22265625 80.40234375 C10.24613253 83.29589683 7.2628331 86.18131541 4.25048828 89.03759766 C3.34328537 89.89836411 3.34328537 89.89836411 2.41775513 90.77651978 C1 92 1 92 0 92 C0 82.76 0 73.52 0 64 C1.98 63.01 3.96 62.02 6 61 C7.38550197 58.22899606 7.1877467 56.0665294 7 53 C5.06008639 49.47639003 5.06008639 49.47639003 0 48 C0 32.16 0 16.32 0 0 Z " fill="#7ECFEC" transform="translate(296,168)"/>
<path d="M0 0 C5.62242475 3.85772209 9.96074716 9.00304981 12.140625 15.46875 C12.60606771 19.85503762 12.55682753 24.24767319 12.578125 28.65625 C12.61099609 29.83767578 12.64386719 31.01910156 12.67773438 32.23632812 C12.73317476 41.33359198 10.97387295 47.85998945 5.11328125 54.90625 C-1.43312362 60.26118241 -6.62045887 61.98808614 -15.12109375 61.76953125 C-22.86233609 60.91920934 -27.18762587 56.5289293 -32.1953125 50.8828125 C-36.78720116 44.22134022 -36.22604585 36.85651351 -36.234375 29.09375 C-36.25886719 27.90007812 -36.28335937 26.70640625 -36.30859375 25.4765625 C-36.33674833 16.99265054 -35.34950326 11.40216826 -29.67578125 5.0078125 C-28.56009766 4.06035156 -28.56009766 4.06035156 -27.421875 3.09375 C-26.68066406 2.44664063 -25.93945312 1.79953125 -25.17578125 1.1328125 C-17.68122943 -4.25113198 -8.10718954 -4.08275732 0 0 Z " fill="#FCF9B1" transform="translate(315.859375,82.53125)"/>
<path d="M0 0 C5.62242475 3.85772209 9.96074716 9.00304981 12.140625 15.46875 C12.60606771 19.85503762 12.55682753 24.24767319 12.578125 28.65625 C12.61099609 29.83767578 12.64386719 31.01910156 12.67773438 32.23632812 C12.73164809 41.08307818 11.23636343 47.97077413 5.16430664 54.63916016 C-0.22144194 59.82892483 -5.38973021 61.47056561 -12.796875 61.84375 C-19.20916837 61.65943294 -23.38865701 59.77738188 -28.0625 55.41015625 C-35.79875438 47.15907919 -36.22258983 40.07752776 -36.234375 29.09375 C-36.25886719 27.90007812 -36.28335938 26.70640625 -36.30859375 25.4765625 C-36.33674833 16.99265054 -35.34950326 11.40216826 -29.67578125 5.0078125 C-28.56009766 4.06035156 -28.56009766 4.06035156 -27.421875 3.09375 C-26.68066406 2.44664063 -25.93945312 1.79953125 -25.17578125 1.1328125 C-17.68122943 -4.25113198 -8.10718954 -4.08275732 0 0 Z " fill="#FCF9B1" transform="translate(163.859375,82.53125)"/>
<path d="M0 0 C1.34850966 0.00171254 2.69702264 0.00164396 4.04553223 -0.00012207 C6.86678071 0.00152842 9.68723193 0.02017387 12.50830078 0.05175781 C16.11646157 0.09143588 19.72357924 0.09580167 23.33191681 0.08829498 C26.11502564 0.08521887 28.89790191 0.09736833 31.68095398 0.11442566 C33.65564626 0.12483213 35.63038286 0.1253027 37.60510254 0.12561035 C38.80985229 0.14152222 40.01460205 0.15743408 41.25585938 0.17382812 C42.84207092 0.18645691 42.84207092 0.18645691 44.46032715 0.19934082 C47.76530306 0.65141216 49.6672448 1.63267651 52.34375 3.59375 C53.74832737 6.40290474 53.59270157 8.48185534 53.34375 11.59375 C51.56390595 14.7296657 50.82066793 15.43477736 47.34375 16.59375 C45.7021655 16.68113898 44.05723378 16.71141621 42.41333008 16.70727539 C41.41251907 16.70719986 40.41170807 16.70712433 39.38056946 16.70704651 C38.30236435 16.70188522 37.22415924 16.69672394 36.11328125 16.69140625 C35.00772385 16.6899913 33.90216644 16.68857635 32.7631073 16.68711853 C29.22746083 16.68151514 25.69187738 16.66896204 22.15625 16.65625 C19.76106862 16.65123544 17.36588625 16.64667246 14.97070312 16.64257812 C9.09503053 16.63154461 3.21939477 16.61480316 -2.65625 16.59375 C-2.64053955 17.83987061 -2.6248291 19.08599121 -2.60864258 20.36987305 C-2.55426927 25.00099198 -2.51987289 29.63208278 -2.49145508 34.26342773 C-2.47638535 36.26640572 -2.4559259 38.2693508 -2.42993164 40.2722168 C-2.39346873 43.15421681 -2.37650539 46.03577984 -2.36328125 48.91796875 C-2.34779739 49.81086105 -2.33231354 50.70375336 -2.31636047 51.623703 C-2.31506513 56.42848067 -2.47433247 59.71655859 -5.65625 63.59375 C-8.46540474 64.99832737 -10.54435534 64.84270157 -13.65625 64.59375 C-16.7921657 62.81390595 -17.49727736 62.07066793 -18.65625 58.59375 C-18.76851312 56.88740843 -18.82521412 55.17714861 -18.84912109 53.46728516 C-18.87321548 51.90018295 -18.87321548 51.90018295 -18.89779663 50.30142212 C-18.94227343 45.53363736 -18.98329304 40.76599045 -19.00634766 35.99804688 C-19.02292624 33.48200239 -19.05024082 30.96600536 -19.08837891 28.45019531 C-19.14307216 24.82331909 -19.16500922 21.19754524 -19.1796875 17.5703125 C-19.20235687 16.44621979 -19.22502625 15.32212708 -19.24838257 14.16397095 C-19.23602656 9.60731001 -19.10706671 6.45592549 -16.97705078 2.38232422 C-11.53649854 -0.54794234 -6.07751768 -0.07707443 0 0 Z " fill="#012735" transform="translate(90.65625,287.40625)"/>
<path d="M0 0 C1.34850966 0.00171254 2.69702264 0.00164396 4.04553223 -0.00012207 C6.86678071 0.00152842 9.68723193 0.02017387 12.50830078 0.05175781 C16.11646157 0.09143588 19.72357924 0.09580167 23.33191681 0.08829498 C26.11502564 0.08521887 28.89790191 0.09736833 31.68095398 0.11442566 C33.65564626 0.12483213 35.63038286 0.1253027 37.60510254 0.12561035 C38.80985229 0.14152222 40.01460205 0.15743408 41.25585938 0.17382812 C42.84207092 0.18645691 42.84207092 0.18645691 44.46032715 0.19934082 C47.76530306 0.65141216 49.6672448 1.63267651 52.34375 3.59375 C53.74832737 6.40290474 53.59270157 8.48185534 53.34375 11.59375 C51.56390595 14.7296657 50.82066793 15.43477736 47.34375 16.59375 C45.7021655 16.68113898 44.05723378 16.71141621 42.41333008 16.70727539 C41.41251907 16.70719986 40.41170807 16.70712433 39.38056946 16.70704651 C38.30236435 16.70188522 37.22415924 16.69672394 36.11328125 16.69140625 C35.00772385 16.6899913 33.90216644 16.68857635 32.7631073 16.68711853 C29.22746083 16.68151514 25.69187738 16.66896204 22.15625 16.65625 C19.76106862 16.65123544 17.36588625 16.64667246 14.97070312 16.64257812 C9.09503053 16.63154461 3.21939477 16.61480316 -2.65625 16.59375 C-2.64053955 17.83987061 -2.6248291 19.08599121 -2.60864258 20.36987305 C-2.55426927 25.00099198 -2.51987289 29.63208278 -2.49145508 34.26342773 C-2.47638535 36.26640572 -2.4559259 38.2693508 -2.42993164 40.2722168 C-2.39346873 43.15421681 -2.37650539 46.03577984 -2.36328125 48.91796875 C-2.34779739 49.81086105 -2.33231354 50.70375336 -2.31636047 51.623703 C-2.31506513 56.42848067 -2.47433247 59.71655859 -5.65625 63.59375 C-8.46540474 64.99832737 -10.54435534 64.84270157 -13.65625 64.59375 C-16.7921657 62.81390595 -17.49727736 62.07066793 -18.65625 58.59375 C-18.76851312 56.88740843 -18.82521412 55.17714861 -18.84912109 53.46728516 C-18.87321548 51.90018295 -18.87321548 51.90018295 -18.89779663 50.30142212 C-18.94227343 45.53363736 -18.98329304 40.76599045 -19.00634766 35.99804688 C-19.02292624 33.48200239 -19.05024082 30.96600536 -19.08837891 28.45019531 C-19.14307216 24.82331909 -19.16500922 21.19754524 -19.1796875 17.5703125 C-19.20235687 16.44621979 -19.22502625 15.32212708 -19.24838257 14.16397095 C-19.23602656 9.60731001 -19.10706671 6.45592549 -16.97705078 2.38232422 C-11.53649854 -0.54794234 -6.07751768 -0.07707443 0 0 Z " fill="#012735" transform="translate(90.65625,191.40625)"/>
<path d="M0 0 C0.9778093 -0.00554901 1.95561859 -0.01109802 2.96305847 -0.01681519 C6.19136748 -0.02861436 9.41827378 -0.00433254 12.64648438 0.02148438 C14.89180436 0.02319546 17.13712635 0.02312982 19.38244629 0.0213623 C24.08670174 0.02301571 28.79048076 0.04171827 33.49462891 0.07324219 C39.52404007 0.11291941 45.55282712 0.11728746 51.58234406 0.10977936 C56.2183402 0.10670954 60.85419609 0.11883071 65.49015808 0.13591003 C67.71330383 0.14294039 69.93646548 0.14606452 72.15962219 0.1452179 C75.26686319 0.14701597 78.37335698 0.16839946 81.48046875 0.1953125 C82.39906174 0.1923819 83.31765472 0.18945129 84.26408386 0.18643188 C89.05386571 0.25042776 92.37603763 0.45115905 96.24023438 3.61523438 C97.64481174 6.42438911 97.48918595 8.50333972 97.24023438 11.61523438 C95.46039033 14.75115008 94.71715231 15.45626173 91.24023438 16.61523438 C89.8556056 16.71340306 88.46683048 16.75861896 87.07876587 16.76913452 C86.23203812 16.77773499 85.38531036 16.78633545 84.51292419 16.79519653 C83.58714066 16.79945648 82.66135712 16.80371643 81.70751953 16.80810547 C80.73000229 16.81628296 79.75248505 16.82446045 78.74534607 16.83288574 C75.50666925 16.85772336 72.26803614 16.87424961 69.02929688 16.88867188 C67.37135164 16.89665739 67.37135164 16.89665739 65.67991257 16.90480423 C59.83218835 16.93152579 53.98448543 16.95090589 48.13671875 16.96533203 C42.09147921 16.98199818 36.04678287 17.02679574 30.00174904 17.07770348 C25.35722206 17.11132053 20.71282508 17.12290327 16.06818771 17.12855911 C13.83940849 17.13528441 11.61063819 17.15053944 9.38197708 17.17444992 C6.2647765 17.20599122 3.14905587 17.20615475 0.03173828 17.19873047 C-0.8899968 17.2151358 -1.81173187 17.23154114 -2.76139832 17.2484436 C-7.25501196 17.20458923 -9.15962973 17.07398583 -12.83267212 14.26626587 C-14.75976562 11.61523438 -14.75976562 11.61523438 -15.38476562 8.61523438 C-13.61716022 0.13072844 -7.26442958 -0.10488857 0 0 Z " fill="#DA3D63" transform="translate(206.759765625,215.384765625)"/>
<path d="M0 0 C1.73618591 -0.00006042 1.73618591 -0.00006042 3.50744629 -0.00012207 C5.95179684 0.00523347 8.39614694 0.02281732 10.84033203 0.05175781 C14.58028833 0.09359939 18.31844293 0.09282635 22.05859375 0.0859375 C24.43490834 0.09643055 26.81121365 0.10936926 29.1875 0.125 C30.3053186 0.12520142 31.42313721 0.12540283 32.5748291 0.12561035 C34.14170471 0.14947815 34.14170471 0.14947815 35.74023438 0.17382812 C37.11326721 0.18645691 37.11326721 0.18645691 38.51403809 0.19934082 C41.63433226 0.676399 43.54257635 1.76301627 46.09375 3.59375 C47.49832737 6.40290474 47.34270157 8.48185534 47.09375 11.59375 C45.31390595 14.7296657 44.57066793 15.43477736 41.09375 16.59375 C39.68550107 16.67396999 38.27377769 16.70140977 36.86328125 16.69140625 C36.06083984 16.68818359 35.25839844 16.68496094 34.43164062 16.68164062 C33.18157227 16.66907227 33.18157227 16.66907227 31.90625 16.65625 C31.06126953 16.65173828 30.21628906 16.64722656 29.34570312 16.64257812 C27.26168845 16.63080403 25.17771023 16.6128689 23.09375 16.59375 C23.10946045 17.83987061 23.1251709 19.08599121 23.14135742 20.36987305 C23.19573073 25.00099198 23.23012711 29.63208278 23.25854492 34.26342773 C23.27361465 36.26640572 23.2940741 38.2693508 23.32006836 40.2722168 C23.35653127 43.15421681 23.37349461 46.03577984 23.38671875 48.91796875 C23.40220261 49.81086105 23.41768646 50.70375336 23.43363953 51.623703 C23.43493487 56.42848067 23.27566753 59.71655859 20.09375 63.59375 C17.28459526 64.99832737 15.20564466 64.84270157 12.09375 64.59375 C8.9578343 62.81390595 8.25272264 62.07066793 7.09375 58.59375 C7.00785697 57.19719541 6.97602285 55.79689223 6.98022461 54.39770508 C6.98030014 53.55706009 6.98037567 52.7164151 6.98045349 51.85029602 C6.98561478 50.94708115 6.99077606 50.04386627 6.99609375 49.11328125 C6.9975087 48.18529221 6.99892365 47.25730316 7.00038147 46.30119324 C7.00598063 43.33617942 7.01853296 40.37124101 7.03125 37.40625 C7.03626511 35.39648547 7.040828 33.38671975 7.04492188 31.37695312 C7.05594979 26.44918968 7.07321383 21.52148263 7.09375 16.59375 C5.12341797 16.68076172 5.12341797 16.68076172 3.11328125 16.76953125 C1.37763977 16.81644048 -0.35804023 16.86193939 -2.09375 16.90625 C-2.95806641 16.94814453 -3.82238281 16.99003906 -4.71289062 17.03320312 C-9.26095923 17.12033088 -11.24950258 17.09194341 -14.98046875 14.26171875 C-16.90625 11.59375 -16.90625 11.59375 -17.53125 8.59375 C-15.57756079 -0.78395819 -7.83903622 -0.11497667 0 0 Z " fill="#FDF9B1" transform="translate(72.90625,79.40625)"/>
<path d="M0 0 C3.21142855 2.37366458 4.71584605 3.93442268 5.75 7.8125 C3.76330689 16.25594574 -6.29179996 23.4376956 -12.23828125 29.37109375 C-13.21012184 30.34360956 -14.18181408 31.31627364 -15.15336609 32.28907776 C-17.17297388 34.31014804 -19.19434967 36.329428 -21.21704102 38.34741211 C-23.81075611 40.93538459 -26.39989333 43.52788364 -28.98775959 46.12170315 C-30.98561979 48.12316918 -32.98584582 50.12225709 -34.98680687 52.12062263 C-36.40737545 53.54020078 -37.82593196 54.96179148 -39.24446106 56.38340759 C-40.10262924 57.23842361 -40.96079742 58.09343964 -41.8449707 58.97436523 C-42.97912163 60.10732277 -42.97912163 60.10732277 -44.13618469 61.26316833 C-46.37493366 63.34938905 -47.61358906 63.92639792 -50.625 64.5 C-55.83455179 63.72821455 -58.34705039 60.62879787 -62 57 C-63.0480008 55.97768384 -64.09619042 54.95556122 -65.14453125 53.93359375 C-74.80902346 44.43232408 -74.80902346 44.43232408 -75.375 40.1875 C-75 37 -75 37 -72.875 34.125 C-70 32 -70 32 -67.1875 31.25 C-62.3123391 32.39709668 -59.48664978 35.53560543 -56 39 C-54.7625 40.2065625 -54.7625 40.2065625 -53.5 41.4375 C-53.005 41.953125 -52.51 42.46875 -52 43 C-48.64803688 41.54454619 -46.46799449 39.70664227 -43.90576172 37.11694336 C-42.71465286 35.92076637 -42.71465286 35.92076637 -41.4994812 34.70042419 C-40.22743332 33.40818687 -40.22743332 33.40818687 -38.9296875 32.08984375 C-38.05224884 31.20720352 -37.17481018 30.32456329 -36.27078247 29.41517639 C-33.94347304 27.07307161 -31.62028733 24.72698316 -29.29943848 22.378479 C-26.02330685 19.06430506 -22.74193282 15.75535053 -19.45779419 12.44911194 C-17.70998749 10.68901146 -15.96486025 8.92624555 -14.22262573 7.16062927 C-13.43485748 6.36633011 -12.64708923 5.57203094 -11.83544922 4.75366211 C-10.79431473 3.70014809 -10.79431473 3.70014809 -9.73214722 2.62535095 C-6.60426359 -0.30968169 -4.22070896 -0.496554 0 0 Z " fill="#DB4165" transform="translate(179,288)"/>
<path d="M0 0 C3.21142855 2.37366458 4.71584605 3.93442268 5.75 7.8125 C3.76330689 16.25594574 -6.29179996 23.4376956 -12.23828125 29.37109375 C-13.21012184 30.34360956 -14.18181408 31.31627364 -15.15336609 32.28907776 C-17.17297388 34.31014804 -19.19434967 36.329428 -21.21704102 38.34741211 C-23.81075611 40.93538459 -26.39989333 43.52788364 -28.98775959 46.12170315 C-30.98561979 48.12316918 -32.98584582 50.12225709 -34.98680687 52.12062263 C-36.40737545 53.54020078 -37.82593196 54.96179148 -39.24446106 56.38340759 C-40.10262924 57.23842361 -40.96079742 58.09343964 -41.8449707 58.97436523 C-42.97912163 60.10732277 -42.97912163 60.10732277 -44.13618469 61.26316833 C-46.37493366 63.34938905 -47.61358906 63.92639792 -50.625 64.5 C-55.83455179 63.72821455 -58.34705039 60.62879787 -62 57 C-63.0480008 55.97768384 -64.09619042 54.95556122 -65.14453125 53.93359375 C-74.80902346 44.43232408 -74.80902346 44.43232408 -75.375 40.1875 C-75 37 -75 37 -72.875 34.125 C-70 32 -70 32 -67.1875 31.25 C-62.3123391 32.39709668 -59.48664978 35.53560543 -56 39 C-54.7625 40.2065625 -54.7625 40.2065625 -53.5 41.4375 C-53.005 41.953125 -52.51 42.46875 -52 43 C-48.64803688 41.54454619 -46.46799449 39.70664227 -43.90576172 37.11694336 C-42.71465286 35.92076637 -42.71465286 35.92076637 -41.4994812 34.70042419 C-40.22743332 33.40818687 -40.22743332 33.40818687 -38.9296875 32.08984375 C-38.05224884 31.20720352 -37.17481018 30.32456329 -36.27078247 29.41517639 C-33.94347304 27.07307161 -31.62028733 24.72698316 -29.29943848 22.378479 C-26.02330685 19.06430506 -22.74193282 15.75535053 -19.45779419 12.44911194 C-17.70998749 10.68901146 -15.96486025 8.92624555 -14.22262573 7.16062927 C-13.43485748 6.36633011 -12.64708923 5.57203094 -11.83544922 4.75366211 C-10.79431473 3.70014809 -10.79431473 3.70014809 -9.73214722 2.62535095 C-6.60426359 -0.30968169 -4.22070896 -0.496554 0 0 Z " fill="#DB4165" transform="translate(179,192)"/>
<path d="M0 0 C15.84 0 31.68 0 48 0 C48 10.56 48 21.12 48 32 C32.16 32 16.32 32 0 32 C0 21.44 0 10.88 0 0 Z " fill="#FFFCCA" transform="translate(88,400)"/>
<path d="M0 0 C0.33 0 0.66 0 1 0 C3.2372001 14.46722731 3.2372001 14.46722731 -0.47216797 20.32470703 C-4.48527517 25.07433743 -9.13456655 29.14388519 -14 33 C-17.38201132 31.40786807 -19.53355616 29.65211132 -22.125 26.9375 C-25.80213608 23.00516169 -25.80213608 23.00516169 -30.875 21.6875 C-34.04524767 21.75215083 -34.04524767 21.75215083 -36.375 23.625 C-38.15045403 25.92460837 -38.15045403 25.92460837 -38.6875 28.75 C-37.80098389 32.94080341 -35.83771975 34.92597231 -32.921875 37.97265625 C-30.81442024 40.19576402 -28.91360457 42.60799429 -27 45 C-36.24 45 -45.48 45 -55 45 C-55 31.8 -55 18.6 -55 5 C-51.43703125 4.95101563 -47.8740625 4.90203125 -44.203125 4.8515625 C-40.75451435 4.79756158 -37.30597351 4.74025052 -33.85742188 4.68261719 C-31.45968826 4.64432095 -29.06189707 4.60946924 -26.6640625 4.578125 C-23.21854058 4.53248895 -19.77341528 4.4744913 -16.328125 4.4140625 C-15.25508118 4.40251129 -14.18203735 4.39096008 -13.07647705 4.37905884 C-12.07574158 4.35918915 -11.0750061 4.33931946 -10.04394531 4.31884766 C-9.16458313 4.30552399 -8.28522095 4.29220032 -7.37921143 4.2784729 C-4.81099487 3.97787805 -3.17856325 3.37785925 -1 2 C-0.67 1.34 -0.34 0.68 0 0 Z " fill="#FEFBCA" transform="translate(143,299)"/>
<path d="M0 0 C0.33 0 0.66 0 1 0 C3.2372001 14.46722731 3.2372001 14.46722731 -0.47216797 20.32470703 C-4.48527517 25.07433743 -9.13456655 29.14388519 -14 33 C-17.38201132 31.40786807 -19.53355616 29.65211132 -22.125 26.9375 C-25.80213608 23.00516169 -25.80213608 23.00516169 -30.875 21.6875 C-34.04524767 21.75215083 -34.04524767 21.75215083 -36.375 23.625 C-38.15045403 25.92460837 -38.15045403 25.92460837 -38.6875 28.75 C-37.80098389 32.94080341 -35.83771975 34.92597231 -32.921875 37.97265625 C-30.81442024 40.19576402 -28.91360457 42.60799429 -27 45 C-36.24 45 -45.48 45 -55 45 C-55 31.8 -55 18.6 -55 5 C-51.43703125 4.95101562 -47.8740625 4.90203125 -44.203125 4.8515625 C-40.75451435 4.79756158 -37.30597351 4.74025052 -33.85742188 4.68261719 C-31.45968826 4.64432095 -29.06189707 4.60946924 -26.6640625 4.578125 C-23.21854058 4.53248895 -19.77341528 4.4744913 -16.328125 4.4140625 C-15.25508118 4.40251129 -14.18203735 4.39096008 -13.07647705 4.37905884 C-12.07574158 4.35918915 -11.0750061 4.33931946 -10.04394531 4.31884766 C-9.16458313 4.30552399 -8.28522095 4.29220032 -7.37921143 4.2784729 C-4.81099487 3.97787805 -3.17856325 3.37785925 -1 2 C-0.67 1.34 -0.34 0.68 0 0 Z " fill="#FEFBCA" transform="translate(143,203)"/>
<path d="M0 0 C15.91644909 12.93211488 15.91644909 12.93211488 17.37109375 21.078125 C17.39300781 21.79484375 17.41492188 22.5115625 17.4375 23.25 C17.49744141 24.30960938 17.49744141 24.30960938 17.55859375 25.390625 C15.6177159 34.45710333 7.53948584 40.8165384 1.1875 47 C0.1978686 47.974551 -0.79106945 48.9498066 -1.77929688 49.92578125 C-4.17949231 52.29085188 -6.58642924 54.64859359 -9 57 C-12.66752005 55.4608199 -14.98580573 53.24514548 -17.765625 50.4296875 C-18.65507812 49.53378906 -19.54453125 48.63789063 -20.4609375 47.71484375 C-21.38132812 46.77769531 -22.30171875 45.84054688 -23.25 44.875 C-24.19484856 43.92011363 -25.14015633 42.96568141 -26.0859375 42.01171875 C-28.39518338 39.67890913 -30.69963203 37.34155914 -33 35 C-29.79261721 31.78591344 -26.57267983 28.58514708 -23.34259033 25.39389038 C-20.93876884 23.01692169 -18.54033827 20.6345431 -16.14208984 18.25195312 C-14.87529557 16.99529321 -13.60672347 15.74042305 -12.33642578 14.48730469 C-10.49562173 12.67069053 -8.66129289 10.84775301 -6.828125 9.0234375 C-6.25837952 8.46401459 -5.68863403 7.90459167 -5.10162354 7.32821655 C-2.6792235 4.9065144 -1.09867665 3.29602996 0 0 Z " fill="#D83C62" transform="translate(455,167)"/>
<path d="M0 0 C6.90971776 5.68302723 13.10865023 12.04007484 19.3815918 18.40209961 C24.42398436 23.50961058 29.49044079 28.507523 34.94750977 33.17456055 C39.3199441 37.06330701 43.3833791 41.2819866 47.5 45.4375 C48.4178125 46.35982422 49.335625 47.28214844 50.28125 48.23242188 C52.52315055 50.48599899 54.762666 52.74189075 57 55 C55.39464713 58.41059403 53.59481099 60.61792484 50.875 63.25 C50.15054688 63.95640625 49.42609375 64.6628125 48.6796875 65.390625 C47.84824219 66.18726563 47.84824219 66.18726563 47 67 C43.14691234 65.42476254 40.55256086 62.82252556 37.68066406 59.90771484 C37.16314072 59.39048355 36.64561737 58.87325226 36.1124115 58.34034729 C34.40869711 56.63524329 32.71217022 54.92317232 31.015625 53.2109375 C29.83350593 52.025087 28.65094355 50.83967826 27.46795654 49.6546936 C24.35971272 46.53882362 21.25752263 43.41699366 18.15655518 40.29388428 C14.98951498 37.10636381 11.81678613 33.9245168 8.64453125 30.7421875 C2.42410597 24.50033024 -3.78993537 18.25216515 -10 12 C-8.39464713 8.58940597 -6.59481099 6.38207516 -3.875 3.75 C-3.15054687 3.04359375 -2.42609375 2.3371875 -1.6796875 1.609375 C-1.12539063 1.07828125 -0.57109375 0.5471875 0 0 Z " fill="#FCF7AF" transform="translate(359,208)"/>
<path d="M0 0 C6.61072987 5.4335882 12.59214196 11.46446043 18.62109375 17.5234375 C19.73188169 18.63609385 20.8428931 19.74852716 21.95411682 20.86074829 C24.85788934 23.7683127 27.75864436 26.67886905 30.65875244 29.59008789 C33.62678263 32.56840429 36.59769662 35.54384106 39.56835938 38.51953125 C45.38171083 44.34356123 51.19187334 50.1707595 57 56 C53.32167983 60.52615993 49.58913637 64.39424999 45 68 C41.42205548 64.44700628 37.84758614 60.89056349 34.27612305 57.33105469 C33.06382752 56.12374935 31.8506313 54.91734766 30.63647461 53.71191406 C24.84501834 47.96099084 19.09682256 42.24885024 13.80444336 36.02929688 C9.61258587 31.31508777 5.04103394 26.94015685 0.5625 22.5 C-0.4657298 21.47679861 -1.49372626 20.45336267 -2.52148438 19.4296875 C-5.01164338 16.95042001 -7.50492833 14.47432462 -10 12 C-8.39464713 8.58940597 -6.59481099 6.38207516 -3.875 3.75 C-3.15054687 3.04359375 -2.42609375 2.3371875 -1.6796875 1.609375 C-1.12539063 1.07828125 -0.57109375 0.5471875 0 0 Z " fill="#FDF8AF" transform="translate(382,185)"/>
<path d="M0 0 C4.90473901 4.11329871 9.5219528 8.38542461 14.02734375 12.9296875 C14.66112442 13.56488312 15.29490509 14.20007874 15.94789124 14.85452271 C17.94681406 16.85898716 19.94220784 18.86692214 21.9375 20.875 C23.30250133 22.24502389 24.6677336 23.61481774 26.03320312 24.984375 C29.35814211 28.32026543 32.67992353 31.65927036 36 35 C32.42784826 37.03711483 28.67117417 37.95863737 24.70703125 38.91015625 C23.6488343 39.16870644 23.6488343 39.16870644 22.56925964 39.43247986 C21.0779281 39.79537688 19.58599334 40.15580271 18.09350586 40.51391602 C15.83577347 41.05690271 13.58094651 41.61089174 11.32617188 42.16601562 C4.24350191 43.88967034 -2.70980666 45.4633493 -10 46 C-9.42012035 39.84044887 -8.44003892 34.02222075 -6.93359375 28.02734375 C-6.73524429 27.21882462 -6.53689484 26.41030548 -6.33253479 25.57728577 C-5.70617999 23.02934247 -5.07199092 20.48342799 -4.4375 17.9375 C-4.0079409 16.19609238 -3.57889972 14.45455692 -3.15039062 12.71289062 C-2.10623457 8.47376076 -1.05505448 4.23642996 0 0 Z " fill="#FCEE04" transform="translate(200,388)"/>
<path d="M0 0 C1.03613937 0.00707474 2.07227875 0.01414948 3.13981628 0.0214386 C6.44160872 0.04937518 9.74169091 0.11211495 13.04296875 0.17578125 C15.28448068 0.20086495 17.52601925 0.22367799 19.76757812 0.24414062 C25.25578955 0.29919919 30.74300696 0.38281844 36.23046875 0.48828125 C35.84211853 0.9369455 35.45376831 1.38560974 35.0536499 1.84786987 C32.71569249 4.56012236 30.40843503 7.25305206 28.24707031 10.10986328 C25.01820884 14.00180953 22.61510445 16.18541542 17.59179688 17.28417969 C14.10526942 17.59922735 10.65000416 17.57421165 7.15429688 17.44189453 C4.9686769 17.36285482 2.79233963 17.35983914 0.60546875 17.3671875 C-9.87442074 17.21527685 -9.87442074 17.21527685 -13.67871094 14.12548828 C-15.76953125 11.48828125 -15.76953125 11.48828125 -16.39453125 8.48828125 C-14.52815093 -0.47034429 -7.55693588 -0.19457754 0 0 Z " fill="#D93E63" transform="translate(207.76953125,311.51171875)"/>
<path d="M0 0 C4.00517396 1.60373148 6.6771098 4.42113986 9.640625 7.4453125 C10.43119293 8.24012527 10.43119293 8.24012527 11.23773193 9.05099487 C12.91325675 10.73767825 14.58167722 12.43119564 16.25 14.125 C17.38755851 15.27259388 18.52557436 16.41973461 19.6640625 17.56640625 C22.44803465 20.37238137 25.2256576 23.18450464 28 26 C26.39464713 29.41059403 24.59481099 31.61792484 21.875 34.25 C21.15054687 34.95640625 20.42609375 35.6628125 19.6796875 36.390625 C19.12539063 36.92171875 18.57109375 37.4528125 18 38 C13.99482604 36.39626852 11.3228902 33.57886014 8.359375 30.5546875 C7.83232971 30.02481232 7.30528442 29.49493713 6.76226807 28.94900513 C5.08674325 27.26232175 3.41832278 25.56880436 1.75 23.875 C0.61244149 22.72740612 -0.52557436 21.58026539 -1.6640625 20.43359375 C-4.44803465 17.62761863 -7.2256576 14.81549536 -10 12 C-8.39464713 8.58940597 -6.59481099 6.38207516 -3.875 3.75 C-3.15054687 3.04359375 -2.42609375 2.3371875 -1.6796875 1.609375 C-1.12539063 1.07828125 -0.57109375 0.5471875 0 0 Z " fill="#FAEC01" transform="translate(388,237)"/>
<path d="M0 0 C6.36590304 5.24458586 12.13570612 11.02097322 17.9375 16.875 C18.91708237 17.85960919 19.89689837 18.843986 20.87695312 19.828125 C23.25360252 22.21648203 25.62787356 24.60715212 28 27 C27.13192399 28.06816445 26.25505217 29.12918085 25.375 30.1875 C24.88773437 30.77917969 24.40046875 31.37085938 23.8984375 31.98046875 C21.44967273 34.58543045 18.77690625 36.74813905 16 39 C12.26299013 35.38640525 8.54256836 31.75682269 4.83666992 28.11132812 C3.57321526 26.87304836 2.30531379 25.63928916 1.03295898 24.41015625 C-0.79325002 22.64446489 -2.60294772 20.86323282 -4.41015625 19.078125 C-4.9840358 18.53005188 -5.55791534 17.98197876 -6.14918518 17.41729736 C-7.72680664 15.84082031 -7.72680664 15.84082031 -10 13 C-9.53687194 8.89032153 -7.36341022 7.05228021 -4.4375 4.25 C-3.61121094 3.45078125 -2.78492188 2.6515625 -1.93359375 1.828125 C-1.29550781 1.22484375 -0.65742188 0.6215625 0 0 Z " fill="#FAEC01" transform="translate(411,214)"/>
<path d="M0 0 C4.00517396 1.60373148 6.6771098 4.42113986 9.640625 7.4453125 C10.43119293 8.24012527 10.43119293 8.24012527 11.23773193 9.05099487 C12.91325675 10.73767825 14.58167722 12.43119564 16.25 14.125 C17.38755851 15.27259388 18.52557436 16.41973461 19.6640625 17.56640625 C22.44803465 20.37238137 25.2256576 23.18450464 28 26 C26.39464713 29.41059403 24.59481099 31.61792484 21.875 34.25 C21.15054687 34.95640625 20.42609375 35.6628125 19.6796875 36.390625 C19.12539063 36.92171875 18.57109375 37.4528125 18 38 C11.63409696 32.75541414 5.86429388 26.97902678 0.0625 21.125 C-0.91708237 20.14039081 -1.89689837 19.156014 -2.87695312 18.171875 C-5.25360252 15.78351797 -7.62787356 13.39284788 -10 11 C-9.05052441 9.88322508 -8.09975103 8.76755346 -7.1484375 7.65234375 C-6.35445557 6.72023071 -6.35445557 6.72023071 -5.54443359 5.76928711 C-3.78334607 3.7518035 -1.93011408 1.85587892 0 0 Z " fill="#615C19" transform="translate(399,226)"/>
<path d="M0 0 C5.28 0 10.56 0 16 0 C16 10.56 16 21.12 16 32 C10.72 32 5.44 32 0 32 C0 21.44 0 10.88 0 0 Z " fill="#FBF36E" transform="translate(120,400)"/>
<path d="M0 0 C6.41069287 5.27101414 12.18590512 11.09128152 18 17 C12.75541414 23.36590304 6.97902678 29.13570612 1.125 34.9375 C0.14039081 35.91708237 -0.843986 36.89689837 -1.828125 37.87695312 C-4.21648203 40.25360252 -6.60715212 42.62787356 -9 45 C-10.14608505 41.59529363 -9.83475928 39.40316372 -8.92578125 35.95703125 C-8.67199707 34.97283203 -8.41821289 33.98863281 -8.15673828 32.97460938 C-7.87813965 31.93111328 -7.59954102 30.88761719 -7.3125 29.8125 C-6.75292462 27.65259783 -6.1943376 25.49243936 -5.63671875 23.33203125 C-5.35876465 22.2642041 -5.08081055 21.19637695 -4.79443359 20.09619141 C-3.6778598 15.7445046 -2.64095814 11.376105 -1.625 7 C-1.37423706 5.92455933 -1.37423706 5.92455933 -1.1184082 4.82739258 C-0.7440289 3.21862779 -0.37173149 1.60937867 0 0 Z " fill="#FBF7AF" transform="translate(200,388)"/>
<path d="M0 0 C11.42307692 0 11.42307692 0 15 3 C16.86630915 6.7326183 16.22798906 11.20470785 16.25 15.3125 C16.270625 16.26318359 16.29125 17.21386719 16.3125 18.19335938 C16.3627921 27.18935942 16.3627921 27.18935942 13 31 C10 32 10 32 0 32 C0 21.44 0 10.88 0 0 Z " fill="#3EB2DA" transform="translate(232,96)"/>
<path d="M0 0 C4.18421805 0.87171209 5.42961969 2.20639419 8 5.625 C8.68745025 9.14220473 8.60807733 12.55353546 8.5 16.125 C8.50386719 17.53072266 8.50386719 17.53072266 8.5078125 18.96484375 C8.43739363 23.92937377 8.31960315 27.65449427 5 31.625 C2.19084526 33.02957737 0.11189466 32.87395157 -3 32.625 C-6.1359157 30.84515595 -6.84102736 30.10191793 -8 26.625 C-8.3042547 23.17190178 -8.3234943 19.71492872 -8.375 16.25 C-8.41238281 15.30382812 -8.44976562 14.35765625 -8.48828125 13.3828125 C-8.54802825 8.65616069 -8.56587514 6.38202359 -5.6640625 2.5 C-3 0.625 -3 0.625 0 0 Z " fill="#40B3DA" transform="translate(304,95.375)"/>
<path d="M0 0 C4.18421805 0.87171209 5.42961969 2.20639419 8 5.625 C8.68745025 9.14220473 8.60807733 12.55353546 8.5 16.125 C8.50386719 17.53072266 8.50386719 17.53072266 8.5078125 18.96484375 C8.43739363 23.92937377 8.31960315 27.65449427 5 31.625 C2.19084526 33.02957737 0.11189466 32.87395157 -3 32.625 C-6.1359157 30.84515595 -6.84102736 30.10191793 -8 26.625 C-8.3042547 23.17190178 -8.3234943 19.71492872 -8.375 16.25 C-8.41238281 15.30382812 -8.44976562 14.35765625 -8.48828125 13.3828125 C-8.54802825 8.65616069 -8.56587514 6.38202359 -5.6640625 2.5 C-3 0.625 -3 0.625 0 0 Z " fill="#40B3DA" transform="translate(152,95.375)"/>
<path d="M0 0 C0.33 0 0.66 0 1 0 C3.23235155 14.43587334 3.23235155 14.43587334 -0.45605469 20.32470703 C-4.41639827 25.06017333 -9.0152928 29.35026353 -14 33 C-14.33 33 -14.66 33 -15 33 C-15 23.76 -15 14.52 -15 5 C-10.71 4.34 -6.42 3.68 -2 3 C-1.34 2.01 -0.68 1.02 0 0 Z " fill="#FBF36D" transform="translate(143,299)"/>
<path d="M0 0 C0.33 0 0.66 0 1 0 C3.23235155 14.43587334 3.23235155 14.43587334 -0.45605469 20.32470703 C-4.41639827 25.06017333 -9.0152928 29.35026353 -14 33 C-14.33 33 -14.66 33 -15 33 C-15 23.76 -15 14.52 -15 5 C-10.71 4.34 -6.42 3.68 -2 3 C-1.34 2.01 -0.68 1.02 0 0 Z " fill="#FBF36D" transform="translate(143,203)"/>
<path d="M0 0 C4.10703441 0.85563217 5.55401113 2.24378009 8 5.625 C8.62491523 9.58279649 8.61006839 11.63363886 6.5 15.0625 C2.97873756 17.26328902 0.04560357 17.42914661 -4 16.625 C-6.5 15.0625 -6.5 15.0625 -8 12.625 C-8.5625 9.1875 -8.5625 9.1875 -8 5.625 C-5.55401113 2.24378009 -4.10703441 0.85563217 0 0 Z " fill="#022938" transform="translate(272,471.375)"/>
<path d="M0 0 C2.5625 1.4375 2.5625 1.4375 4 4 C4.29497681 8.19018346 4.01551389 11.75881636 1.3125 15.0625 C-2.51149053 16.61276643 -5.48850947 16.61276643 -9.3125 15.0625 C-12.01551389 11.75881636 -12.29497681 8.19018346 -12 4 C-9.30484273 -0.80441079 -5.02051735 -0.97535613 0 0 Z " fill="#012836" transform="translate(108,56)"/>
<path d="M0 0 C4.0743356 0.84881992 5.54405875 2.30225596 8 5.625 C8.625 8.625 8.625 8.625 8 11.625 C5.54405875 14.94774404 4.0743356 16.40118008 0 17.25 C-4.0743356 16.40118008 -5.54405875 14.94774404 -8 11.625 C-8.625 8.625 -8.625 8.625 -8 5.625 C-5.54405875 2.30225596 -4.0743356 0.84881992 0 0 Z " fill="#0A2F3D" transform="translate(240,279.375)"/>
<path d="M0 0 C4.0743356 0.84881992 5.54405875 2.30225596 8 5.625 C8.625 8.625 8.625 8.625 8 11.625 C5.54405875 14.94774404 4.0743356 16.40118008 0 17.25 C-4.0743356 16.40118008 -5.54405875 14.94774404 -8 11.625 C-8.625 8.625 -8.625 8.625 -8 5.625 C-5.54405875 2.30225596 -4.0743356 0.84881992 0 0 Z " fill="#0A2F3D" transform="translate(208,279.375)"/>
<path d="M0 0 C4.0743356 0.84881992 5.54405875 2.30225596 8 5.625 C8.625 8.625 8.625 8.625 8 11.625 C5.54405875 14.94774404 4.0743356 16.40118008 0 17.25 C-4.0743356 16.40118008 -5.54405875 14.94774404 -8 11.625 C-8.625 8.625 -8.625 8.625 -8 5.625 C-5.54405875 2.30225596 -4.0743356 0.84881992 0 0 Z " fill="#0A2F3D" transform="translate(272,183.375)"/>
<path d="M0 0 C4.0743356 0.84881992 5.54405875 2.30225596 8 5.625 C8.625 8.625 8.625 8.625 8 11.625 C5.54405875 14.94774404 4.0743356 16.40118008 0 17.25 C-4.0743356 16.40118008 -5.54405875 14.94774404 -8 11.625 C-8.625 8.625 -8.625 8.625 -8 5.625 C-5.54405875 2.30225596 -4.0743356 0.84881992 0 0 Z " fill="#0A2F3D" transform="translate(240,183.375)"/>
<path d="M0 0 C4.0743356 0.84881992 5.54405875 2.30225596 8 5.625 C8.625 8.625 8.625 8.625 8 11.625 C5.54405875 14.94774404 4.0743356 16.40118008 0 17.25 C-4.0743356 16.40118008 -5.54405875 14.94774404 -8 11.625 C-8.625 8.625 -8.625 8.625 -8 5.625 C-5.54405875 2.30225596 -4.0743356 0.84881992 0 0 Z " fill="#0A2F3D" transform="translate(208,183.375)"/>
<path d="M0 0 C3.35324965 -0.20504349 6.70487403 -0.32818195 10.0625 -0.4375 C11.00544922 -0.49615234 11.94839844 -0.55480469 12.91992188 -0.61523438 C19.8662769 -0.78465767 19.8662769 -0.78465767 23.24560547 1.55419922 C25.00539157 3.28915589 26.56899453 4.98647751 28 7 C28 7.33 28 7.66 28 8 C18.76 8 9.52 8 0 8 C0 5.36 0 2.72 0 0 Z " fill="#FBF36D" transform="translate(88,336)"/>
<path d="M0 0 C3.35324965 -0.20504349 6.70487403 -0.32818195 10.0625 -0.4375 C11.00544922 -0.49615234 11.94839844 -0.55480469 12.91992188 -0.61523438 C19.8662769 -0.78465767 19.8662769 -0.78465767 23.24560547 1.55419922 C25.00539157 3.28915589 26.56899453 4.98647751 28 7 C28 7.33 28 7.66 28 8 C18.76 8 9.52 8 0 8 C0 5.36 0 2.72 0 0 Z " fill="#FBF36D" transform="translate(88,240)"/>
</svg>
